<svg xmlns="http://www.w3.org/2000/svg" width="22" height="22" viewBox="0 0 22 22" fill="none">
  <path d="M5.75 12.5H1.25C0.835786 12.5 0.5 12.8358 0.5 13.25V20.75C0.5 21.1642 0.835786 21.5 1.25 21.5H5.75C6.16421 21.5 6.5 21.1642 6.5 20.75V13.25C6.5 12.8358 6.16421 12.5 5.75 12.5Z" fill="black"/>
  <path d="M20.75 6.5H16.25C15.8358 6.5 15.5 6.83579 15.5 7.25V20.75C15.5 21.1642 15.8358 21.5 16.25 21.5H20.75C21.1642 21.5 21.5 21.1642 21.5 20.75V7.25C21.5 6.83579 21.1642 6.5 20.75 6.5Z" fill="black"/>
  <path d="M13.25 0.5H8.75C8.33579 0.5 8 0.835786 8 1.25V20.75C8 21.1642 8.33579 21.5 8.75 21.5H13.25C13.6642 21.5 14 21.1642 14 20.75V1.25C14 0.835786 13.6642 0.5 13.25 0.5Z" fill="black"/>
</svg>