<svg xmlns="http://www.w3.org/2000/svg" width="21" height="24" viewBox="0 0 21 24" fill="none">
  <path d="M10.3602 11.5609C11.9484 11.5609 13.3237 10.9912 14.4475 9.86729C15.5712 8.74361 16.1408 7.36867 16.1408 5.78027C16.1408 4.19234 15.5712 2.81727 14.4473 1.69317C13.3234 0.569623 11.9482 0 10.3602 0C8.77177 0 7.39679 0.569623 6.27311 1.69335C5.14942 2.81708 4.57957 4.1922 4.57957 5.78027C4.57957 7.36867 5.14938 8.74379 6.27329 9.86752C7.39721 10.9911 8.77233 11.5609 10.3602 11.5609ZM20.4747 18.4548C20.4423 17.9871 20.3768 17.4769 20.2802 16.9383C20.1828 16.3955 20.0574 15.8825 19.9073 15.4136C19.7522 14.9289 19.5413 14.4503 19.2805 13.9916C19.0099 13.5155 18.692 13.1009 18.3353 12.7598C17.9623 12.403 17.5057 12.1161 16.9776 11.9067C16.4514 11.6986 15.8681 11.5931 15.2443 11.5931C14.9993 11.5931 14.7624 11.6936 14.3048 11.9916C13.9796 12.2034 13.6533 12.4137 13.3261 12.6225C13.0117 12.8228 12.5858 13.0105 12.0598 13.1804C11.5465 13.3465 11.0254 13.4308 10.5111 13.4308C9.99675 13.4308 9.47578 13.3465 8.96199 13.1804C8.43652 13.0107 8.01061 12.823 7.69655 12.6227C7.33234 12.39 7.00281 12.1776 6.71696 11.9913C6.25993 11.6934 6.02279 11.5929 5.77783 11.5929C5.15378 11.5929 4.5708 11.6985 4.04472 11.907C3.51701 12.1159 3.06017 12.4028 2.68681 12.76C2.33033 13.1013 2.01228 13.5156 1.742 13.9916C1.48147 14.4502 1.27053 14.9287 1.11524 15.4138C0.965237 15.8827 0.839847 16.3955 0.742441 16.9383C0.645926 17.4762 0.580395 17.9866 0.547957 18.4553C0.51569 18.927 0.499696 19.3997 0.500004 19.8725C0.500004 21.1254 0.898253 22.1395 1.68359 22.8875C2.45923 23.6257 3.48551 24.0001 4.73355 24.0001H16.2897C17.5377 24.0001 18.5636 23.6258 19.3395 22.8876C20.125 22.1401 20.5232 21.1257 20.5232 19.8723C20.5231 19.3888 20.5068 18.9118 20.4747 18.4548Z" fill="black"/>
</svg>