<svg xmlns="http://www.w3.org/2000/svg" width="21" height="24" viewBox="0 0 21 24" fill="none">
  <path fillRule="evenodd" clipRule="evenodd" d="M1.50961 15.6324H3.45122C3.70941 15.6324 3.91997 15.8429 3.91997 16.1011V20.6871C3.91997 20.9452 3.70941 21.1558 3.45122 21.1558H1.50961C1.25142 21.1558 1.04086 20.9452 1.04086 20.6871V16.1011C1.04086 15.8429 1.25142 15.6324 1.50961 15.6324ZM8.79731 12.7385H6.85566C6.59747 12.7385 6.38691 12.949 6.38691 13.2072V20.6871C6.38691 20.9453 6.59747 21.1559 6.85566 21.1559H8.79731C9.0555 21.1559 9.26606 20.9453 9.26606 20.6871V13.2072C9.26606 12.949 9.05545 12.7385 8.79731 12.7385ZM14.1434 9.71662H12.2018C11.9436 9.71662 11.733 9.92718 11.733 10.1854V20.6871C11.733 20.9452 11.9436 21.1558 12.2018 21.1558H14.1434C14.4015 21.1558 14.6121 20.9452 14.6121 20.6871V10.1854C14.6121 9.92723 14.4015 9.71662 14.1434 9.71662ZM17.5477 6.99825H19.4893C19.7475 6.99825 19.958 7.20881 19.958 7.467V20.6871C19.958 20.9452 19.7475 21.1558 19.4893 21.1558H17.5477C17.2895 21.1558 17.0789 20.9452 17.0789 20.6871V7.467C17.0789 7.20881 17.2895 6.99825 17.5477 6.99825ZM17.6745 2.02865C17.5762 2.03239 17.4804 1.99725 17.4079 1.93085C17.3353 1.86445 17.2918 1.77214 17.2868 1.67389C17.2818 1.57565 17.3156 1.47939 17.3811 1.40595C17.4466 1.33252 17.5383 1.28783 17.6365 1.28156L19.939 1.15659C19.9941 1.15378 20.0492 1.16319 20.1002 1.18416C20.1513 1.20514 20.1971 1.23714 20.2343 1.27788C20.2715 1.31863 20.2992 1.3671 20.3155 1.41983C20.3318 1.47256 20.3362 1.52824 20.3284 1.58287L20.3287 1.58292L19.9965 3.86479C19.9816 3.96234 19.9289 4.05009 19.8497 4.10896C19.7705 4.16783 19.6713 4.19305 19.5736 4.17915C19.4759 4.16525 19.3877 4.11335 19.3281 4.03473C19.2685 3.95611 19.2423 3.85713 19.2553 3.75932L19.437 2.51095C16.5764 5.06339 13.5801 7.1579 10.5537 8.88281C7.3132 10.7298 4.03903 12.1521 0.860953 13.2588C0.767688 13.29 0.665884 13.2832 0.577599 13.2399C0.489313 13.1966 0.421656 13.1202 0.389287 13.0273C0.356917 12.9345 0.362442 12.8326 0.404665 12.7438C0.446887 12.6549 0.522406 12.5863 0.614859 12.5528C3.75281 11.46 6.98545 10.0558 10.1846 8.23246C13.1624 6.53521 16.1119 4.47365 18.9296 1.96064L17.6745 2.02865ZM0.621094 22.5878H20.3778C20.636 22.5878 20.8466 22.7984 20.8466 23.0565V23.2062C20.8466 23.4644 20.636 23.675 20.3778 23.675H0.621094C0.362906 23.675 0.152344 23.4644 0.152344 23.2062V23.0565C0.152344 22.7984 0.362906 22.5878 0.621094 22.5878ZM5.04258 0.325073C2.77734 0.325073 0.941016 2.1614 0.941016 4.42664C0.941016 6.69187 2.77734 8.5282 5.04258 8.5282C7.30781 8.5282 9.14414 6.69187 9.14414 4.42664C9.14409 2.1614 7.30777 0.325073 5.04258 0.325073ZM4.66758 1.83117V2.07862C4.41098 2.13407 4.17042 2.24442 3.97533 2.403C3.66473 2.65551 3.46781 3.02221 3.49003 3.47948C3.51234 3.93965 3.74184 4.24823 4.06125 4.45678C4.3372 4.63696 4.67498 4.72992 4.98623 4.78101C5.23027 4.82109 5.49047 4.88418 5.68702 5.00287C5.83988 5.09517 5.95467 5.22965 5.97905 5.4307C5.98242 5.45859 5.98425 5.47818 5.98453 5.48976C5.98828 5.64721 5.91253 5.76754 5.79881 5.85384C5.65186 5.96535 5.44425 6.03126 5.23608 6.05653C5.18673 6.06284 5.13711 6.06682 5.08739 6.06843C4.8413 6.07434 4.59877 6.01425 4.40967 5.88834C4.2562 5.78615 4.13897 5.63676 4.09008 5.44059C4.06508 5.34565 4.00377 5.26434 3.91936 5.2142C3.83496 5.16405 3.73423 5.14909 3.6389 5.17254C3.54357 5.19598 3.46127 5.25596 3.40975 5.33953C3.35824 5.4231 3.34163 5.52357 3.36352 5.61928C3.46167 6.01298 3.6937 6.31064 3.99656 6.51234C4.19588 6.64504 4.42613 6.73434 4.66758 6.78004V7.02215C4.66758 7.12161 4.7071 7.21699 4.77743 7.28731C4.81225 7.32213 4.8536 7.34975 4.89909 7.36859C4.94459 7.38743 4.99336 7.39713 5.0426 7.39713C5.09185 7.39712 5.14061 7.38742 5.18611 7.36857C5.2316 7.34973 5.27294 7.3221 5.30776 7.28728C5.34258 7.25245 5.3702 7.21111 5.38904 7.16561C5.40788 7.12011 5.41758 7.07135 5.41758 7.0221V6.78726C5.71331 6.7386 6.01284 6.62845 6.24998 6.44854C6.54539 6.22439 6.74189 5.90329 6.73163 5.47218C6.73088 5.42895 6.72807 5.38578 6.72323 5.34281C6.66605 4.87162 6.41138 4.5651 6.07373 4.36125C5.77983 4.18378 5.42836 4.09556 5.10637 4.04268C4.87987 4.00551 4.64175 3.94284 4.46855 3.82973C4.33884 3.74507 4.2458 3.62273 4.23712 3.44423C4.22766 3.24937 4.31283 3.0921 4.44703 2.98298C4.55395 2.89607 4.69059 2.8356 4.839 2.80575C4.99593 2.77428 5.15791 2.77819 5.31314 2.81718C5.56055 2.8799 5.78578 3.04298 5.90442 3.32554C5.92346 3.37094 5.95126 3.41215 5.98623 3.44681C6.0212 3.48146 6.06265 3.50889 6.10822 3.52753C6.15379 3.54616 6.20259 3.55564 6.25182 3.55541C6.30105 3.55519 6.34976 3.54526 6.39516 3.52621C6.44056 3.50717 6.48176 3.47937 6.51642 3.4444C6.55108 3.40944 6.57851 3.36798 6.59714 3.32241C6.61577 3.27684 6.62525 3.22805 6.62502 3.17882C6.6248 3.12958 6.61488 3.08088 6.59583 3.03548C6.37547 2.51067 5.95598 2.20748 5.49478 2.09057C5.4692 2.0841 5.44347 2.07821 5.41762 2.0729V1.83098C5.41761 1.78173 5.4079 1.73297 5.38904 1.68747C5.37018 1.64198 5.34255 1.60064 5.30772 1.56583C5.27288 1.53101 5.23153 1.5034 5.18603 1.48456C5.14053 1.46573 5.09176 1.45604 5.04251 1.45605C4.99326 1.45606 4.94449 1.46577 4.899 1.48463C4.8535 1.50349 4.81217 1.53113 4.77735 1.56596C4.74254 1.60079 4.71492 1.64214 4.69609 1.68764C4.67725 1.73315 4.66757 1.78192 4.66758 1.83117Z" fill="black"/>
</svg>