<svg width="16" height="16" viewBox="0 0 16 16" fill="none" xmlns="http://www.w3.org/2000/svg">
<path d="M11.95 7.14928L12 7.08253V4.70703L8 6.30703L4 4.70703V7.08253L4.05 7.14928C4.09125 7.20428 5.096 8.49928 8 8.49928C10.904 8.49928 11.9087 7.20428 11.95 7.14928ZM15.625 15.2493H2.125C1.76033 15.2493 1.41059 15.1044 1.15273 14.8466C0.894866 14.5887 0.75 14.239 0.75 13.8743C0.75 13.5096 0.894866 13.1599 1.15273 12.902C1.41059 12.6441 1.76033 12.4993 2.125 12.4993H15.625C15.7245 12.4993 15.8198 12.4598 15.8902 12.3894C15.9605 12.3191 16 12.2237 16 12.1243C16 12.0248 15.9605 11.9294 15.8902 11.8591C15.8198 11.7888 15.7245 11.7493 15.625 11.7493H2.125C1.56141 11.7493 1.02091 11.9732 0.622398 12.3717C0.223883 12.7702 0 13.3107 0 13.8743C0 14.4379 0.223883 14.9784 0.622398 15.3769C1.02091 15.7754 1.56141 15.9993 2.125 15.9993H15.625C15.7245 15.9993 15.8198 15.9598 15.8902 15.8894C15.9605 15.8191 16 15.7237 16 15.6243C16 15.5248 15.9605 15.4294 15.8902 15.3591C15.8198 15.2888 15.7245 15.2493 15.625 15.2493Z" fill="#121212"/>
<path d="M1.25 13.875C1.25 13.9899 1.27263 14.1037 1.31661 14.2098C1.36058 14.316 1.42503 14.4125 1.50628 14.4937C1.58753 14.575 1.68399 14.6394 1.79015 14.6834C1.89631 14.7274 2.01009 14.75 2.125 14.75H15.625V13H2.125C1.89294 13 1.67038 13.0922 1.50628 13.2563C1.34219 13.4204 1.25 13.6429 1.25 13.875Z" fill="#121212"/>
<path d="M13.25 6.625C13.5952 6.625 13.875 6.34518 13.875 6C13.875 5.65482 13.5952 5.375 13.25 5.375C12.9048 5.375 12.625 5.65482 12.625 6C12.625 6.34518 12.9048 6.625 13.25 6.625Z" fill="#121212"/>
<path d="M12.1629 4.10347L7.91017 2.48347L8.08817 2.01597L12.8482 3.82947L14.9222 2.99972L7.99917 0.230469L1.07617 2.99972L7.99917 5.76897L12.1629 4.10347ZM12.9992 4.42222V4.90497C13.1634 4.86471 13.3349 4.86471 13.4992 4.90497V4.07747L12.8482 3.82947L12.1629 4.10347L12.9992 4.42222ZM2.24917 9.49972C2.24917 9.63233 2.30185 9.7595 2.39562 9.85327C2.48939 9.94704 2.61656 9.99972 2.74917 9.99972H11.9092L12.0757 8.99972H2.74917C2.61656 8.99972 2.48939 9.0524 2.39562 9.14616C2.30185 9.23993 2.24917 9.36711 2.24917 9.49972ZM13.9992 9.49972L13.5934 7.06522C13.3708 7.1446 13.1276 7.1446 12.9049 7.06522L12.4992 9.49972H13.9992Z" fill="#121212"/>
<path d="M2.75 11.25H13.625C13.7245 11.25 13.8198 11.2105 13.8902 11.1402C13.9605 11.0698 14 10.9745 14 10.875C14 10.7755 13.9605 10.6802 13.8902 10.6098C13.8198 10.5395 13.7245 10.5 13.625 10.5H2.75C2.48478 10.5 2.23043 10.3946 2.04289 10.2071C1.85536 10.0196 1.75 9.76522 1.75 9.5C1.75 9.23478 1.85536 8.98043 2.04289 8.79289C2.23043 8.60536 2.48478 8.5 2.75 8.5H5.17C4.71858 8.3218 4.30071 8.06819 3.93425 7.75H2.75C2.28587 7.75 1.84075 7.93437 1.51256 8.26256C1.18437 8.59075 1 9.03587 1 9.5C1 9.96413 1.18437 10.4092 1.51256 10.7374C1.84075 11.0656 2.28587 11.25 2.75 11.25ZM12.285 7.75H12.066C11.6995 8.06822 11.2815 8.32184 10.83 8.5H12.16L12.285 7.75Z" fill="#121212"/>
</svg>
