<svg width="48" height="48" viewBox="0 0 48 48" fill="none" xmlns="http://www.w3.org/2000/svg">
<rect width="48" height="48" rx="12" fill="#474D5C"/>
<path d="M28.5 28.5001C28.5 29.7427 29.5074 30.7501 30.75 30.7501C31.9926 30.7501 33 29.7427 33 28.5001C33 27.2575 31.9926 26.2501 30.75 26.2501C29.5074 26.2501 28.5 27.2575 28.5 28.5001Z" stroke="white" stroke-width="2.25"/>
<path d="M28.5057 17.7039C20.3643 17.1398 13.6571 15.9317 10.5 14.9997V28.5919C10.5 31.5835 10.5 33.0793 11.4294 34.2992C12.3587 35.5192 13.6338 35.8637 16.1841 36.5528C20.3043 37.6661 24.6353 38.3291 28.5159 38.7083C32.5379 39.1013 34.5488 39.2978 36.0245 37.9493C37.5 36.6008 37.5 34.4347 37.5 30.1021V27.0817C37.5 22.8743 37.5 20.7706 36.2893 19.465C35.0788 18.1594 32.8878 18.0076 28.5057 17.7039Z" stroke="white" stroke-width="2.25" stroke-linecap="round" stroke-linejoin="round"/>
<path d="M32.4387 18.0001C33.0052 15.8652 33.5179 11.9824 31.9905 10.0545C31.0224 8.83252 29.5835 8.94993 28.1727 9.07401C20.7569 9.72621 15.5182 11.0511 12.5895 11.9512C11.3302 12.3382 10.5 13.5679 10.5 14.9408" stroke="white" stroke-width="2.25" stroke-linejoin="round"/>
</svg>
