<svg width="19" height="22" viewBox="0 0 19 22" fill="none" xmlns="http://www.w3.org/2000/svg">
<path d="M12.173 21.89C11.8216 21.8882 11.4746 21.8115 11.1551 21.6651C10.8356 21.5187 10.5509 21.306 10.32 21.041C10.001 20.734 9.85704 20.61 9.50704 20.61C9.15704 20.61 9.01304 20.734 8.69304 21.041C8.46314 21.3072 8.17858 21.5208 7.85875 21.6672C7.53891 21.8136 7.19129 21.8893 6.83954 21.8893C6.48779 21.8893 6.14017 21.8136 5.82033 21.6672C5.50049 21.5208 5.21594 21.3072 4.98604 21.041C4.66704 20.733 4.52204 20.609 4.17104 20.609C3.96595 20.6015 3.76582 20.6731 3.61204 20.809C3.35232 21.0204 3.03776 21.1534 2.70518 21.1926C2.37259 21.2317 2.03574 21.1753 1.73404 21.03C1.43773 20.8889 1.18779 20.6663 1.01351 20.3882C0.839226 20.1102 0.747831 19.7882 0.750039 19.46V2C0.750568 1.53603 0.935113 1.09122 1.26319 0.763148C1.59126 0.435074 2.03607 0.250529 2.50004 0.25H16.5C16.964 0.250529 17.4088 0.435074 17.7369 0.763148C18.065 1.09122 18.2495 1.53603 18.25 2V19.454C18.2521 19.7815 18.161 20.1028 17.9873 20.3805C17.8136 20.6581 17.5645 20.8806 17.269 21.022C16.9671 21.168 16.6298 21.2249 16.2967 21.1861C15.9636 21.1473 15.6484 21.0144 15.388 20.803C15.2364 20.6703 15.0394 20.6012 14.838 20.61C14.487 20.61 14.344 20.734 14.024 21.041C13.7935 21.3059 13.5092 21.5186 13.19 21.665C12.8709 21.8113 12.5242 21.8881 12.173 21.89ZM9.50704 19.11C9.85833 19.1119 10.2052 19.1885 10.5245 19.3349C10.8439 19.4813 11.1284 19.6941 11.359 19.959C11.679 20.266 11.822 20.39 12.173 20.39C12.524 20.39 12.666 20.266 12.985 19.959C13.2159 19.694 13.5006 19.4813 13.8201 19.3349C14.1396 19.1885 14.4866 19.1118 14.838 19.11C15.3792 19.1007 15.9059 19.2851 16.323 19.63C16.3628 19.665 16.412 19.6874 16.4645 19.6945C16.517 19.7016 16.5704 19.6931 16.618 19.67C16.6594 19.6517 16.6943 19.6213 16.7178 19.5827C16.7414 19.5441 16.7527 19.4992 16.75 19.454V2C16.75 1.9337 16.7237 1.87011 16.6768 1.82322C16.6299 1.77634 16.5663 1.75 16.5 1.75H2.50004C2.43374 1.75 2.37015 1.77634 2.32326 1.82322C2.27638 1.87011 2.25004 1.9337 2.25004 2V19.458C2.2475 19.5035 2.25886 19.5488 2.28262 19.5877C2.30637 19.6266 2.34139 19.6574 2.38304 19.676C2.43014 19.6983 2.48267 19.7064 2.5343 19.6995C2.58594 19.6926 2.63447 19.6709 2.67404 19.637C3.0943 19.2865 3.6269 19.0994 4.17404 19.11C4.52548 19.1121 4.87248 19.1888 5.19209 19.3349C5.51169 19.4811 5.79662 19.6935 6.02804 19.958C6.34804 20.266 6.49204 20.39 6.84404 20.39C7.19604 20.39 7.33804 20.266 7.65704 19.959C7.88759 19.6944 8.17177 19.4819 8.49072 19.3355C8.80967 19.1891 9.15611 19.1123 9.50704 19.11Z" fill="black"/>
<path d="M13.5 5.75H8C7.80109 5.75 7.61032 5.67098 7.46967 5.53033C7.32902 5.38968 7.25 5.19891 7.25 5C7.25 4.80109 7.32902 4.61032 7.46967 4.46967C7.61032 4.32902 7.80109 4.25 8 4.25H13.5C13.6989 4.25 13.8897 4.32902 14.0303 4.46967C14.171 4.61032 14.25 4.80109 14.25 5C14.25 5.19891 14.171 5.38968 14.0303 5.53033C13.8897 5.67098 13.6989 5.75 13.5 5.75ZM13.5 10.75H8C7.80109 10.75 7.61032 10.671 7.46967 10.5303C7.32902 10.3897 7.25 10.1989 7.25 10C7.25 9.80109 7.32902 9.61032 7.46967 9.46967C7.61032 9.32902 7.80109 9.25 8 9.25H13.5C13.6989 9.25 13.8897 9.32902 14.0303 9.46967C14.171 9.61032 14.25 9.80109 14.25 10C14.25 10.1989 14.171 10.3897 14.0303 10.5303C13.8897 10.671 13.6989 10.75 13.5 10.75ZM13.5 15.75H8C7.80109 15.75 7.61032 15.671 7.46967 15.5303C7.32902 15.3897 7.25 15.1989 7.25 15C7.25 14.8011 7.32902 14.6103 7.46967 14.4697C7.61032 14.329 7.80109 14.25 8 14.25H13.5C13.6989 14.25 13.8897 14.329 14.0303 14.4697C14.171 14.6103 14.25 14.8011 14.25 15C14.25 15.1989 14.171 15.3897 14.0303 15.5303C13.8897 15.671 13.6989 15.75 13.5 15.75Z" fill="black"/>
<path d="M5.5 11C6.05228 11 6.5 10.5523 6.5 10C6.5 9.44772 6.05228 9 5.5 9C4.94772 9 4.5 9.44772 4.5 10C4.5 10.5523 4.94772 11 5.5 11Z" fill="black"/>
<path d="M5.5 6C6.05228 6 6.5 5.55228 6.5 5C6.5 4.44772 6.05228 4 5.5 4C4.94772 4 4.5 4.44772 4.5 5C4.5 5.55228 4.94772 6 5.5 6Z" fill="black"/>
<path d="M5.5 16C6.05228 16 6.5 15.5523 6.5 15C6.5 14.4477 6.05228 14 5.5 14C4.94772 14 4.5 14.4477 4.5 15C4.5 15.5523 4.94772 16 5.5 16Z" fill="black"/>
</svg>
