<svg width="25" height="25" viewBox="0 0 25 25" fill="none" xmlns="http://www.w3.org/2000/svg">
<g id="invisible 1" clip-path="url(#clip0_279_48)">
<g id="Group">
<g id="Group_2">
<g id="Group_3">
<path id="Vector" d="M12.3798 8.69904L15.8153 12.1346L15.8317 11.9547C15.8317 10.1496 14.3648 8.68268 12.5597 8.68268L12.3798 8.69904Z" fill="#081D14" fill-opacity="0.5"/>
<path id="Vector_2" d="M12.5597 6.50142C15.5699 6.50142 18.013 8.94451 18.013 11.9547C18.013 12.6582 17.8713 13.329 17.6259 13.9452L20.8161 17.1354C22.4629 15.7611 23.7608 13.9834 24.5625 11.9547C22.6702 7.16675 18.0185 3.77478 12.5598 3.77478C11.0328 3.77478 9.57137 4.04743 8.2135 4.53823L10.5693 6.88858C11.1855 6.64866 11.8562 6.50142 12.5597 6.50142Z" fill="#081D14" fill-opacity="0.5"/>
<path id="Vector_3" d="M1.65314 3.52933L4.13985 6.01603L4.63612 6.5123C2.83653 7.91926 1.41322 9.78976 0.5625 11.9547C2.44936 16.7427 7.10647 20.1346 12.5598 20.1346C14.2503 20.1346 15.8645 19.8074 17.3424 19.213L17.8059 19.6766L20.9852 22.8613L22.3758 21.4762L3.04374 2.13873L1.65314 3.52933ZM7.68453 9.55525L9.36961 11.2403C9.32053 11.4748 9.28781 11.7093 9.28781 11.9547C9.28781 13.7597 10.7547 15.2267 12.5598 15.2267C12.8052 15.2267 13.0397 15.1939 13.2687 15.1449L14.9538 16.8299C14.2285 17.1899 13.4214 17.408 12.5598 17.408C9.54956 17.408 7.10647 14.9649 7.10647 11.9547C7.10647 11.0931 7.32462 10.286 7.68453 9.55525Z" fill="#081D14" fill-opacity="0.5"/>
</g>
</g>
</g>
</g>
<defs>
<clipPath id="clip0_279_48">
<rect width="24" height="24" fill="white" transform="translate(0.5625 0.5)"/>
</clipPath>
</defs>
</svg>
