<svg width="332" height="333" viewBox="0 0 332 333" fill="none" xmlns="http://www.w3.org/2000/svg">
<path d="M270.514 81.2471H286.051V114.5H270.514V81.2471Z" fill="#F0F0F0"/>
<path d="M250.786 116.824H269.876V148.955H250.786V116.824Z" fill="#F0F0F0"/>
<path d="M248.462 80.6694H230.335V51.1745H229.691V80.6694H212.918V50.5172H248.462V80.6694Z" fill="#F0F0F0"/>
<path d="M270.514 116.824H286.051V148.955H270.514V116.824Z" fill="#F0F0F0"/>
<path d="M212.918 116.824H229.691V148.955H212.918V116.824Z" fill="#F0F0F0"/>
<path d="M250.786 81.2471H269.876V114.5H250.786V81.2471Z" fill="#F0F0F0"/>
<path d="M212.918 81.2471H229.691V114.5H212.918V81.2471Z" fill="#F0F0F0"/>
<path d="M270.514 149.526H286.051V178.477H270.514V149.526Z" fill="#F0F0F0"/>
<path d="M270.52 80.6694V51.1745H269.876V80.6694H250.786V50.5172H286.051V80.6694H270.52Z" fill="#F0F0F0"/>
<path d="M250.786 149.526H269.876V178.477H250.786V149.526Z" fill="#F0F0F0"/>
<path d="M212.918 149.526H229.691V178.477H212.918V149.526Z" fill="#F0F0F0"/>
<path d="M230.335 81.2471H248.462V114.5H230.335V81.2471Z" fill="#F0F0F0"/>
<path d="M230.335 149.526H248.462V178.477H230.335V149.526Z" fill="#F0F0F0"/>
<path d="M230.335 116.824H248.462V148.955H230.335V116.824Z" fill="#F0F0F0"/>
<path d="M94.3411 79.866H109.872V113.119H94.3411V79.866Z" fill="#F0F0F0"/>
<path d="M74.6004 115.443H93.6904V147.574H74.6004V115.443Z" fill="#F0F0F0"/>
<path d="M72.2831 79.2883H54.1559V49.7934H53.5118V79.2883H36.7325V49.136H72.2831V79.2883Z" fill="#F0F0F0"/>
<path d="M94.3411 115.443H109.872V147.574H94.3411V115.443Z" fill="#F0F0F0"/>
<path d="M36.7391 115.443H53.5117V147.574H36.7391V115.443Z" fill="#F0F0F0"/>
<path d="M74.6004 79.866H93.6904V113.119H74.6004V79.866Z" fill="#F0F0F0"/>
<path d="M36.7391 79.866H53.5117V113.119H36.7391V79.866Z" fill="#F0F0F0"/>
<path d="M94.3411 148.145H109.872V177.095H94.3411V148.145Z" fill="#F0F0F0"/>
<path d="M94.3345 79.2883V49.7934H93.6904V79.2883H74.6004V49.136H109.872V79.2883H94.3345Z" fill="#F0F0F0"/>
<path d="M74.6004 148.145H93.6904V177.095H74.6004V148.145Z" fill="#F0F0F0"/>
<path d="M36.7391 148.145H53.5117V177.095H36.7391V148.145Z" fill="#F0F0F0"/>
<path d="M54.1559 79.866H72.2831V113.119H54.1559V79.866Z" fill="#F0F0F0"/>
<path d="M54.1559 148.145H72.2831V177.095H54.1559V148.145Z" fill="#F0F0F0"/>
<path d="M54.1559 115.443H72.2831V147.574H54.1559V115.443Z" fill="#F0F0F0"/>
<path d="M97.4287 278.103V297.611H68.89H37.4164V278.103H97.4287Z" fill="#F0F0F0"/>
<path d="M99.9453 272.645V278.103H35.3182V272.645H68.89H99.9453Z" fill="#E6E6E6"/>
<path d="M67.635 297.611H37.4164V278.103H35.3182V272.645H68.89V277.599L67.635 297.611Z" fill="#E0E0E0"/>
<path d="M76.8647 281.251H89.0358V284.185H76.8647V281.251Z" fill="#E0E0E0"/>
<path d="M74.9722 287.857H90.6028V294.059H74.9722V287.857Z" fill="white"/>
<path d="M82.6016 251.098L82.6946 243.761L56.9845 245.966L56.1877 253.223L82.6016 251.098Z" fill="#F0F0F0"/>
<path d="M77.062 247.088L77.1747 248.404L61.0982 249.78L60.9856 248.463L77.062 247.088Z" fill="#E0E0E0"/>
<path d="M85.6693 244.133L85.6826 236.796L59.9991 239.272L59.3417 245.826L85.6693 244.133Z" fill="#E0E0E0"/>
<path d="M85.6759 237.792L85.6892 242.745L60.663 244.591L61.0814 240.023L85.6759 237.792Z" fill="white"/>
<path d="M62.5688 241.922C62.8688 241.957 63.1718 241.957 63.4718 241.922L65.9353 241.729C68.0136 241.55 70.8754 241.278 74.0361 240.959C77.1967 240.64 80.0652 240.328 82.1302 240.089L84.5804 239.79C84.8834 239.764 85.1834 239.711 85.4768 239.631C85.1766 239.6 84.874 239.6 84.5738 239.631L82.1103 239.83C80.0386 240.003 77.1702 240.275 74.0029 240.594C70.8356 240.913 67.9804 241.225 65.9087 241.464L63.4586 241.769C63.1581 241.794 62.8604 241.845 62.5688 241.922Z" fill="#E0E0E0"/>
<path d="M62.6219 242.546C62.9241 242.581 63.2293 242.581 63.5315 242.546L66.0149 242.433C68.1131 242.32 71.0082 242.134 74.202 241.915C77.3959 241.696 80.2843 241.47 82.3759 241.291L84.8526 241.065C85.1567 241.05 85.4589 241.008 85.7556 240.939C85.4511 240.906 85.1438 240.906 84.8393 240.939L82.3559 241.059C80.2643 241.172 77.3693 241.351 74.1755 241.577C70.9816 241.802 68.0866 242.015 66.0016 242.194L63.5249 242.42C63.2204 242.432 62.9179 242.474 62.6219 242.546Z" fill="#E0E0E0"/>
<path d="M82.3095 257.858L82.4025 250.527L56.699 252.705L55.9686 259.252L82.3095 257.858Z" fill="#E0E0E0"/>
<path d="M79.4741 258.017C79.697 256.824 79.8038 255.612 79.7929 254.398C79.8925 253.191 79.8814 251.978 79.7597 250.773C79.5403 251.964 79.4358 253.174 79.4476 254.385C79.3436 255.594 79.3525 256.81 79.4741 258.017Z" fill="#F5F5F5"/>
<path d="M78.5113 250.886C78.2284 253.281 78.175 255.698 78.352 258.103C78.552 256.913 78.6365 255.705 78.6043 254.498C78.6879 253.294 78.6568 252.084 78.5113 250.886Z" fill="#F5F5F5"/>
<path d="M76.1741 254.086C71.6921 254.578 66.4199 254.863 61.8649 255.268L76.1741 254.086Z" fill="white"/>
<path d="M61.8649 255.268C62.5668 255.306 63.2706 255.288 63.9697 255.215C65.2977 255.142 67.0574 255.029 69.0361 254.883C71.0148 254.737 72.8009 254.571 74.0891 254.418C74.7926 254.37 75.4903 254.259 76.1741 254.086C75.4713 254.06 74.7675 254.089 74.0692 254.173L69.0095 254.538C67.0175 254.684 65.2446 254.837 63.9498 254.969C63.2473 255.006 62.5495 255.106 61.8649 255.268Z" fill="#F5F5F5"/>
<path d="M59.9858 259.04C60.214 257.964 60.3253 256.866 60.3178 255.766C60.4336 254.663 60.4336 253.55 60.3178 252.446C60.0891 253.522 59.9756 254.62 59.9791 255.72C59.8673 256.824 59.8695 257.936 59.9858 259.04Z" fill="#F5F5F5"/>
<path d="M58.4321 259.126C58.7052 258.054 58.8698 256.957 58.9234 255.853C59.0925 254.754 59.1437 253.641 59.0762 252.533C58.8023 253.604 58.6376 254.701 58.5848 255.806C58.4157 256.904 58.3645 258.017 58.4321 259.126Z" fill="#F5F5F5"/>
<path d="M72.376 255.726C69.5407 255.919 67.3827 256.065 65.1251 256.118L72.376 255.726Z" fill="white"/>
<path d="M65.072 256.118C66.2799 256.233 67.4961 256.233 68.7041 256.118C69.9193 256.114 71.1313 255.991 72.3229 255.753C71.1148 255.64 69.8988 255.64 68.6908 255.753C67.4755 255.756 66.2634 255.878 65.072 256.118Z" fill="#F5F5F5"/>
<path d="M80.583 272.187L81.0677 264.87L55.278 265.68L54.2023 272.18L80.583 272.187Z" fill="#F5F5F5"/>
<path d="M79.5671 271.271L54.4746 270.912L55.1718 266.35L80.0386 265.892L79.5671 271.271Z" fill="white"/>
<path d="M79.8859 265.009L80.1183 257.679L54.375 259.358L53.5184 265.892L79.8859 265.009Z" fill="#EBEBEB"/>
<path d="M74.4179 260.904L74.5034 262.223L58.402 263.267L58.3165 261.948L74.4179 260.904Z" fill="#E0E0E0"/>
<path d="M54.9129 268.229C55.238 268.279 55.5667 268.301 55.8956 268.296L58.5848 268.362C60.849 268.402 63.9831 268.435 67.4359 268.449C70.8887 268.462 74.0294 268.449 76.2937 268.449L78.9829 268.402C79.3118 268.412 79.6409 268.39 79.9656 268.336C79.6405 268.286 79.3117 268.263 78.9829 268.269L76.3269 268.203C74.0626 268.163 70.9285 268.13 67.4691 268.117C64.0097 268.103 60.8756 268.117 58.6047 268.117L55.9487 268.163C55.6021 268.15 55.255 268.172 54.9129 268.229Z" fill="#E0E0E0"/>
<path d="M54.6139 269.65C54.9441 269.694 55.2771 269.712 55.6099 269.704H58.3124C60.5966 269.704 63.7506 269.704 67.2366 269.631C70.7226 269.557 73.8766 269.518 76.1541 269.458L78.8566 269.365C79.1884 269.368 79.5197 269.339 79.8459 269.279C79.5181 269.234 79.1873 269.217 78.8566 269.225H76.1475C73.8699 269.225 70.7159 269.225 67.2299 269.299C63.7439 269.372 60.5899 269.405 58.3058 269.471L55.6033 269.564C55.2715 269.56 54.94 269.589 54.6139 269.65Z" fill="#E0E0E0"/>
<path d="M282.1 198.43C286.363 199.094 288.276 204.359 287.897 208.662C287.519 212.965 285.759 217.175 286.231 221.471C286.835 226.922 290.952 231.53 291.43 236.995C292.001 243.442 287.446 249.159 286.078 255.487C285.414 258.568 285.513 261.822 284.365 264.783C283.334 267.24 281.512 269.283 279.187 270.586C276.863 271.888 274.17 272.377 271.536 271.974C268.927 271.44 266.572 270.05 264.843 268.024C263.115 265.998 262.112 263.453 261.995 260.793C261.902 255.839 264.956 251.178 264.584 246.244C264.312 242.592 262.174 239.133 262.632 235.508C263.176 231.185 267.174 228.117 268.608 224C270.042 219.884 268.661 215.368 269.152 211.013C270.009 203.197 274.312 197.766 282.1 198.43Z" fill="#EBEBEB"/>
<path d="M303.88 235.999C304.61 243.19 301.429 251.656 297.731 257.864C293.982 264.117 288.34 269.015 281.622 271.848C280.872 272.16 279.936 272.426 279.305 271.908C279.079 271.663 278.909 271.371 278.807 271.054C278.705 270.736 278.673 270.4 278.714 270.069C278.663 262.433 281.087 254.986 285.624 248.844C290.161 242.702 296.566 238.195 303.88 235.999Z" fill="#F5F5F5"/>
<path d="M272.545 286.888C272.632 286.763 272.702 286.627 272.751 286.483L273.263 285.308C273.694 284.278 274.345 282.804 275.168 280.985C277.313 276.259 279.695 271.645 282.306 267.16C284.927 262.682 287.773 258.338 290.832 254.146C292.007 252.539 292.983 251.251 293.661 250.368C293.979 249.956 294.232 249.618 294.438 249.345C294.534 249.228 294.619 249.101 294.69 248.967C294.572 249.064 294.465 249.173 294.371 249.292L293.541 250.268C292.817 251.125 291.808 252.386 290.6 253.973C287.462 258.125 284.576 262.46 281.954 266.955C279.329 271.448 276.972 276.093 274.896 280.865C274.106 282.705 273.495 284.185 273.11 285.248L272.665 286.456C272.609 286.595 272.569 286.74 272.545 286.888Z" fill="#E0E0E0"/>
<path d="M277.18 218.31C277.131 218.528 277.104 218.75 277.101 218.974C277.061 219.459 277.014 220.123 276.954 220.966C276.842 222.726 276.682 225.209 276.49 228.27C276.098 234.425 275.56 242.918 274.896 252.313C274.232 261.709 273.568 270.202 273.11 276.35C272.877 279.391 272.685 281.875 272.552 283.654C272.499 284.484 272.453 285.142 272.419 285.646C272.403 285.867 272.403 286.089 272.419 286.31C272.468 286.092 272.502 285.87 272.519 285.646C272.572 285.161 272.645 284.497 272.731 283.654C272.897 281.895 273.13 279.418 273.395 276.35C273.947 270.208 274.644 261.742 275.308 252.32C275.972 242.898 276.463 234.445 276.775 228.31C276.915 225.262 277.034 222.779 277.114 221.006C277.114 220.169 277.167 219.505 277.18 219.014C277.198 218.78 277.198 218.544 277.18 218.31Z" fill="#E0E0E0"/>
<path d="M283.794 276.629H265.779V289.856C265.779 292.145 266.689 294.341 268.308 295.96C269.926 297.579 272.122 298.488 274.411 298.488C276.626 298.491 278.756 297.643 280.363 296.119C281.97 294.595 282.929 292.512 283.043 290.301L283.794 276.629Z" fill="#EBEBEB"/>
<path d="M38.8839 298.076C38.8839 298.176 99.6399 298.249 174.566 298.249C249.491 298.249 310.254 298.176 310.254 298.076C310.254 297.977 249.518 297.904 174.566 297.904C99.6133 297.904 38.8839 297.983 38.8839 298.076Z" fill="#263238"/>
<path d="M86.7981 96.2469L112.747 89.328C113.161 89.2193 113.55 89.0298 113.89 88.7704C114.231 88.511 114.516 88.1868 114.731 87.8166C114.946 87.4463 115.085 87.0372 115.141 86.6129C115.198 86.1886 115.169 85.7573 115.058 85.344L101.499 34.4617C101.39 34.0481 101.2 33.6603 100.94 33.3202C100.68 32.9802 100.356 32.6947 99.9863 32.4801C99.6162 32.2655 99.2075 32.1259 98.7834 32.0694C98.3594 32.013 97.9284 32.0407 97.5151 32.1509L63.08 41.3274C62.2458 41.5502 61.534 42.0947 61.1008 42.8416C60.6676 43.5885 60.5484 44.4767 60.7693 45.3114L72.0573 87.7277C72.4634 89.2564 73.1673 90.6899 74.1286 91.946C75.0898 93.2021 76.2896 94.2561 77.6591 95.0476C79.0286 95.839 80.5408 96.3524 82.1091 96.5582C83.6773 96.764 85.2708 96.6582 86.7981 96.2469Z" fill="#EB592A"/>
<path d="M72.3361 47.3279L96.8265 40.8023L101.436 58.1002L76.9452 64.6258L72.3361 47.3279Z" fill="#263238"/>
<path d="M83.6307 74.5274C83.7649 75.0362 84.047 75.4936 84.4415 75.8417C84.836 76.1899 85.325 76.413 85.8465 76.4828C86.368 76.5527 86.8984 76.466 87.3706 76.234C87.8428 76.0019 88.2354 75.6348 88.4986 75.1792C88.7619 74.7237 88.8839 74.2002 88.8492 73.6752C88.8145 73.1503 88.6247 72.6474 88.3038 72.2304C87.9829 71.8135 87.5454 71.5012 87.0468 71.3333C86.5482 71.1653 86.011 71.1493 85.5032 71.2871C84.8266 71.4707 84.2501 71.9144 83.8993 72.5214C83.5486 73.1284 83.452 73.8495 83.6307 74.5274Z" fill="#EB592A"/>
<path opacity="0.2" d="M83.6307 74.5274C83.7649 75.0362 84.047 75.4936 84.4415 75.8417C84.836 76.1899 85.325 76.413 85.8465 76.4828C86.368 76.5527 86.8984 76.466 87.3706 76.234C87.8428 76.0019 88.2354 75.6348 88.4986 75.1792C88.7619 74.7237 88.8839 74.2002 88.8492 73.6752C88.8145 73.1503 88.6247 72.6474 88.3038 72.2304C87.9829 71.8135 87.5454 71.5012 87.0468 71.3333C86.5482 71.1653 86.011 71.1493 85.5032 71.2871C84.8266 71.4707 84.2501 71.9144 83.8993 72.5214C83.5486 73.1284 83.452 73.8495 83.6307 74.5274Z" fill="white"/>
<path d="M79.9921 80.769C80.1258 81.2777 80.4076 81.7351 80.8016 82.0835C81.1957 82.4318 81.6842 82.6554 82.2054 82.7257C82.7266 82.7961 83.257 82.7102 83.7293 82.4788C84.2016 82.2474 84.5946 81.881 84.8584 81.426C85.1223 80.9711 85.2451 80.448 85.2113 79.9232C85.1776 79.3983 84.9888 78.8953 84.6688 78.4779C84.3489 78.0605 83.9122 77.7474 83.4142 77.5785C82.9161 77.4095 82.3791 77.3922 81.8712 77.5287C81.1934 77.7109 80.6153 78.154 80.2632 78.7612C79.9111 79.3684 79.8136 80.0902 79.9921 80.769Z" fill="#EB592A"/>
<path opacity="0.1" d="M79.9921 80.769C80.1258 81.2777 80.4076 81.7351 80.8016 82.0835C81.1957 82.4318 81.6842 82.6554 82.2054 82.7257C82.7266 82.7961 83.257 82.7102 83.7293 82.4788C84.2016 82.2474 84.5946 81.881 84.8584 81.426C85.1223 80.9711 85.2451 80.448 85.2113 79.9232C85.1776 79.3983 84.9888 78.8953 84.6688 78.4779C84.3489 78.0605 83.9122 77.7474 83.4142 77.5785C82.9161 77.4095 82.3791 77.3922 81.8712 77.5287C81.1934 77.7109 80.6153 78.154 80.2632 78.7612C79.9111 79.3684 79.8136 80.0902 79.9921 80.769Z" fill="black"/>
<path d="M93.4447 74.6071C93.8238 76.0295 94.6161 77.3075 95.7215 78.2797C96.8268 79.2518 98.1956 79.8743 99.6548 80.0686C101.114 80.2629 102.598 80.0201 103.919 79.3711C105.24 78.722 106.339 77.6958 107.077 76.4221C107.815 75.1484 108.159 73.6846 108.065 72.2155C107.972 70.7465 107.444 69.3383 106.55 68.1689C105.656 66.9996 104.435 66.1216 103.042 65.646C101.649 65.1704 100.146 65.1186 98.7235 65.497C97.7786 65.7484 96.8925 66.1834 96.1158 66.7774C95.3391 67.3713 94.687 68.1124 94.1967 68.9584C93.7065 69.8044 93.3878 70.7387 93.2588 71.7079C93.1297 72.6772 93.1929 73.6623 93.4447 74.6071Z" fill="#EB592A"/>
<path opacity="0.2" d="M93.4447 74.6071C93.8238 76.0295 94.6161 77.3075 95.7215 78.2797C96.8268 79.2518 98.1956 79.8743 99.6548 80.0686C101.114 80.2629 102.598 80.0201 103.919 79.3711C105.24 78.722 106.339 77.6958 107.077 76.4221C107.815 75.1484 108.159 73.6846 108.065 72.2155C107.972 70.7465 107.444 69.3383 106.55 68.1689C105.656 66.9996 104.435 66.1216 103.042 65.646C101.649 65.1704 100.146 65.1186 98.7235 65.497C97.7786 65.7484 96.8925 66.1834 96.1158 66.7774C95.3391 67.3713 94.687 68.1124 94.1967 68.9584C93.7065 69.8044 93.3878 70.7387 93.2588 71.7079C93.1297 72.6772 93.1929 73.6623 93.4447 74.6071Z" fill="white"/>
<path d="M101.559 67.5554L101.997 69.2088C102.026 69.3265 102.079 69.4371 102.151 69.5344C102.224 69.6316 102.315 69.7135 102.419 69.7752C102.524 69.837 102.639 69.8774 102.76 69.8942C102.88 69.9109 103.002 69.9036 103.119 69.8728L105.058 69.3549C105.175 69.3241 105.297 69.3169 105.416 69.3337C105.536 69.3505 105.651 69.391 105.755 69.4528C105.859 69.5147 105.949 69.5965 106.021 69.6937C106.093 69.7909 106.145 69.9014 106.174 70.0189L106.718 72.0573C106.75 72.1742 106.758 72.2963 106.741 72.4163C106.725 72.5363 106.685 72.6518 106.623 72.7559C106.561 72.8599 106.478 72.9505 106.381 73.0221C106.283 73.0938 106.172 73.145 106.054 73.1729L104.109 73.6908C103.991 73.7194 103.881 73.7712 103.783 73.843C103.686 73.9149 103.604 74.0054 103.543 74.1092C103.481 74.2131 103.44 74.3282 103.423 74.4479C103.407 74.5676 103.414 74.6894 103.445 74.8063L104.002 76.8979C104.033 77.0148 104.04 77.1366 104.023 77.2563C104.007 77.376 103.966 77.4911 103.904 77.595C103.843 77.6988 103.761 77.7893 103.663 77.8612C103.566 77.933 103.456 77.9848 103.338 78.0134L100.762 78.6774C100.645 78.7073 100.524 78.7138 100.404 78.6966C100.285 78.6793 100.17 78.6387 100.066 78.577C99.9627 78.5153 99.8723 78.4338 99.8002 78.3371C99.7282 78.2404 99.6759 78.1304 99.6465 78.0134L99.0754 75.8753C99.0468 75.7579 98.995 75.6474 98.9232 75.5502C98.8513 75.453 98.7608 75.3711 98.657 75.3093C98.5531 75.2475 98.438 75.207 98.3183 75.1902C98.1986 75.1734 98.0768 75.1805 97.9599 75.2113L96.1605 75.6894C96.0436 75.7193 95.922 75.7258 95.8027 75.7086C95.6833 75.6913 95.5685 75.6507 95.4649 75.589C95.3612 75.5273 95.2708 75.4458 95.1987 75.3491C95.1267 75.2524 95.0744 75.1424 95.045 75.0254L94.5005 72.9803C94.442 72.7444 94.4789 72.4949 94.6032 72.2861C94.7275 72.0772 94.9292 71.9258 95.1645 71.8648L97.0569 71.3601C97.1738 71.3307 97.2838 71.2784 97.3805 71.2064C97.4773 71.1343 97.5588 71.0439 97.6205 70.9402C97.6822 70.8366 97.7228 70.7218 97.74 70.6024C97.7573 70.4831 97.7508 70.3615 97.7209 70.2446L97.2893 68.6444C97.2585 68.5275 97.2513 68.4057 97.2681 68.286C97.2849 68.1663 97.3254 68.0512 97.3873 67.9473C97.4491 67.8435 97.531 67.753 97.6282 67.6811C97.7254 67.6093 97.8359 67.5575 97.9533 67.5289L100.43 66.8649C100.55 66.8324 100.675 66.8246 100.797 66.8421C100.92 66.8597 101.038 66.902 101.143 66.9667C101.249 67.0314 101.34 67.1169 101.412 67.2182C101.483 67.3194 101.533 67.4342 101.559 67.5554Z" fill="#EB592A"/>
<path d="M64.5939 40.929L79.9058 96.041C79.9058 96.041 75.2578 94.9521 72.6018 89.6069C72.2166 88.8433 69.2818 77.2299 69.2818 77.2299L65.3974 62.6684L60.497 44.5345C60.4091 44.2087 60.3879 43.8684 60.4349 43.5341C60.4818 43.1999 60.5958 42.8786 60.7701 42.5895C60.9444 42.3005 61.1754 42.0497 61.4491 41.8522C61.7228 41.6547 62.0336 41.5146 62.3629 41.4403L64.5939 40.929Z" fill="#263238"/>
<path d="M221.305 101.565L202.905 96.6652C202.612 96.5873 202.338 96.4525 202.097 96.2685C201.857 96.0845 201.655 95.8549 201.503 95.5928C201.352 95.3307 201.253 95.0413 201.213 94.741C201.174 94.4408 201.193 94.1357 201.272 93.8432L210.88 57.7747C210.958 57.482 211.092 57.2076 211.276 56.9671C211.46 56.7265 211.69 56.5247 211.952 56.373C212.214 56.2212 212.504 56.1227 212.804 56.0829C213.104 56.0432 213.409 56.063 213.702 56.1412L238.104 62.6418C238.69 62.8046 239.187 63.1931 239.487 63.7221C239.787 64.2511 239.865 64.8774 239.704 65.4638L231.736 95.5098C231.451 96.5935 230.954 97.6102 230.275 98.5015C229.596 99.3929 228.747 100.141 227.778 100.704C226.809 101.267 225.738 101.632 224.627 101.78C223.516 101.928 222.387 101.855 221.305 101.565Z" fill="#EB592A"/>
<path d="M228.29 79.1549L210.928 74.5287L214.197 62.2611L231.559 66.8873L228.29 79.1549Z" fill="#263238"/>
<path d="M223.549 86.174C223.453 86.5334 223.253 86.8564 222.974 87.102C222.695 87.3477 222.349 87.5049 221.98 87.5539C221.612 87.6029 221.237 87.5414 220.903 87.3773C220.569 87.2131 220.292 86.9536 220.106 86.6316C219.92 86.3096 219.833 85.9397 219.858 85.5686C219.882 85.1975 220.016 84.8419 220.242 84.5469C220.469 84.252 220.778 84.0308 221.13 83.9115C221.482 83.7921 221.862 83.78 222.221 83.8766C222.701 84.0057 223.111 84.3201 223.36 84.7508C223.609 85.1815 223.677 85.6933 223.549 86.174Z" fill="#EB592A"/>
<path opacity="0.2" d="M223.549 86.174C223.453 86.5334 223.253 86.8564 222.974 87.102C222.695 87.3477 222.349 87.5049 221.98 87.5539C221.612 87.6029 221.237 87.5414 220.903 87.3773C220.569 87.2131 220.292 86.9536 220.106 86.6316C219.92 86.3096 219.833 85.9397 219.858 85.5686C219.882 85.1975 220.016 84.8419 220.242 84.5469C220.469 84.252 220.778 84.0308 221.13 83.9115C221.482 83.7921 221.862 83.78 222.221 83.8766C222.701 84.0057 223.111 84.3201 223.36 84.7508C223.609 85.1815 223.677 85.6933 223.549 86.174Z" fill="white"/>
<path d="M226.125 90.6029C226.03 90.9623 225.83 91.2852 225.55 91.5309C225.271 91.7765 224.925 91.9338 224.557 91.9828C224.188 92.0318 223.813 91.9703 223.48 91.8061C223.146 91.6419 222.868 91.3824 222.682 91.0605C222.496 90.7385 222.41 90.3685 222.434 89.9974C222.458 89.6264 222.592 89.2708 222.819 88.9758C223.045 88.6808 223.354 88.4597 223.706 88.3403C224.058 88.221 224.438 88.2088 224.797 88.3054C225.278 88.4346 225.687 88.749 225.936 89.1797C226.185 89.6103 226.253 90.1221 226.125 90.6029Z" fill="#EB592A"/>
<path opacity="0.1" d="M226.125 90.6029C226.03 90.9623 225.83 91.2852 225.55 91.5309C225.271 91.7765 224.925 91.9338 224.557 91.9828C224.188 92.0318 223.813 91.9703 223.48 91.8061C223.146 91.6419 222.868 91.3824 222.682 91.0605C222.496 90.7385 222.41 90.3685 222.434 89.9974C222.458 89.6264 222.592 89.2708 222.819 88.9758C223.045 88.6808 223.354 88.4597 223.706 88.3403C224.058 88.221 224.438 88.2088 224.797 88.3054C225.278 88.4346 225.687 88.749 225.936 89.1797C226.185 89.6103 226.253 90.1221 226.125 90.6029Z" fill="black"/>
<path d="M216.59 86.2138C216.321 87.2226 215.759 88.129 214.974 88.8183C214.19 89.5075 213.219 89.9487 212.184 90.0861C211.149 90.2234 210.097 90.0507 209.16 89.5899C208.223 89.129 207.444 88.4006 206.921 87.4969C206.398 86.5932 206.155 85.5547 206.222 84.5127C206.289 83.4708 206.664 82.4722 207.299 81.6433C207.934 80.8144 208.8 80.1924 209.789 79.8559C210.777 79.5195 211.843 79.4837 212.852 79.7531C213.522 79.9312 214.15 80.2396 214.701 80.6609C215.252 81.0821 215.714 81.6079 216.061 82.208C216.408 82.8081 216.634 83.4708 216.725 84.1582C216.815 84.8456 216.77 85.5441 216.59 86.2138Z" fill="#EB592A"/>
<path opacity="0.2" d="M216.59 86.2138C216.321 87.2226 215.759 88.129 214.974 88.8183C214.19 89.5075 213.219 89.9487 212.184 90.0861C211.149 90.2234 210.097 90.0507 209.16 89.5899C208.223 89.129 207.444 88.4006 206.921 87.4969C206.398 86.5932 206.155 85.5547 206.222 84.5127C206.289 83.4708 206.664 82.4722 207.299 81.6433C207.934 80.8144 208.8 80.1924 209.789 79.8559C210.777 79.5195 211.843 79.4837 212.852 79.7531C213.522 79.9312 214.15 80.2396 214.701 80.6609C215.252 81.0821 215.714 81.6079 216.061 82.208C216.408 82.8081 216.634 83.4708 216.725 84.1582C216.815 84.8456 216.77 85.5441 216.59 86.2138Z" fill="white"/>
<path d="M210.84 81.2338L210.528 82.4024C210.48 82.5654 210.371 82.7037 210.224 82.789C210.077 82.8742 209.903 82.8998 209.738 82.8606L208.357 82.4954C208.191 82.4562 208.017 82.4818 207.87 82.567C207.723 82.6523 207.614 82.7906 207.566 82.9536L207.181 84.4011C207.142 84.5664 207.168 84.7405 207.253 84.8875C207.338 85.0344 207.476 85.1432 207.639 85.1912L209.014 85.5564C209.177 85.6045 209.315 85.7132 209.4 85.8602C209.486 86.0072 209.511 86.1813 209.472 86.3466L209.08 87.8273C209.039 87.9936 209.064 88.1693 209.149 88.3178C209.235 88.4663 209.374 88.576 209.538 88.6241L211.364 89.1088C211.53 89.1481 211.704 89.1224 211.851 89.0372C211.998 88.952 212.107 88.8136 212.155 88.6507L212.56 87.1368C212.608 86.9738 212.716 86.8355 212.863 86.7502C213.01 86.665 213.185 86.6394 213.35 86.6786L214.625 87.0172C214.79 87.0565 214.964 87.0308 215.111 86.9456C215.258 86.8604 215.367 86.7221 215.415 86.5591L215.807 85.1116C215.846 84.9454 215.819 84.7705 215.732 84.6234C215.646 84.4763 215.506 84.3681 215.342 84.3214L214.014 83.9628C213.851 83.9148 213.713 83.806 213.627 83.6591C213.542 83.5121 213.516 83.338 213.556 83.1727L213.861 82.0306C213.9 81.8653 213.875 81.6912 213.789 81.5442C213.704 81.3972 213.566 81.2885 213.403 81.2404L211.643 80.7756C211.476 80.7326 211.299 80.7563 211.149 80.8418C210.999 80.9274 210.888 81.068 210.84 81.2338Z" fill="#EB592A"/>
<path d="M237.048 62.3563L226.198 101.419C227.329 101.058 228.372 100.466 229.263 99.6808C230.153 98.8957 230.871 97.9344 231.371 96.8578C231.65 96.3133 233.721 88.0863 233.721 88.0863L236.47 77.7611L239.943 64.9061C240.005 64.6749 240.02 64.4334 239.986 64.1964C239.953 63.9593 239.871 63.7315 239.747 63.5268C239.623 63.322 239.459 63.1445 239.264 63.005C239.07 62.8654 238.849 62.7668 238.615 62.7149L237.048 62.3563Z" fill="#263238"/>
<path d="M252.42 116.698C253.447 116.928 254.513 116.928 255.54 116.698C254.513 116.468 253.447 116.468 252.42 116.698Z" fill="#EB592A"/>
<path d="M250.76 112.448C250.529 113.492 250.529 114.573 250.76 115.616C250.99 114.573 250.99 113.492 250.76 112.448Z" fill="#EB592A"/>
<path d="M249 116.598C247.972 116.368 246.907 116.368 245.879 116.598C246.907 116.829 247.972 116.829 249 116.598Z" fill="#EB592A"/>
<path d="M250.647 120.848C250.877 119.803 250.877 118.72 250.647 117.674C250.416 118.72 250.416 119.803 250.647 120.848Z" fill="#EB592A"/>
<path d="M248.124 119.022C248.197 119.088 248.502 118.836 248.788 118.471C249.073 118.106 249.286 117.754 249.212 117.694C249.139 117.634 248.834 117.88 248.548 118.245C248.263 118.61 248.05 118.962 248.124 119.022Z" fill="#EB592A"/>
<path d="M248.27 114.201C248.203 114.268 248.402 114.587 248.721 114.905C249.04 115.224 249.385 115.436 249.425 115.37C249.465 115.304 249.286 114.985 248.967 114.666C248.648 114.348 248.336 114.135 248.27 114.201Z" fill="#EB592A"/>
<path d="M251.849 115.43C251.915 115.503 252.207 115.357 252.513 115.104C252.818 114.852 253.011 114.593 252.951 114.52C252.891 114.447 252.592 114.587 252.287 114.839C251.981 115.091 251.789 115.357 251.849 115.43Z" fill="#EB592A"/>
<path d="M251.995 117.555C251.922 117.621 252.101 117.933 252.386 118.219C252.672 118.504 252.971 118.743 253.05 118.677C253.13 118.61 252.944 118.305 252.659 118.013C252.373 117.721 252.061 117.495 251.995 117.555Z" fill="#EB592A"/>
<path d="M167.613 65.0322L167.461 65.4041C167.324 65.7254 167.124 66.016 166.873 66.2589C166.623 66.5019 166.326 66.6921 166 66.8184L165.595 66.9777L165.98 67.1371C166.305 67.268 166.6 67.4631 166.847 67.7107C167.095 67.9583 167.29 68.2533 167.421 68.578L167.527 68.8502L167.693 68.5116C167.984 67.8943 168.506 67.4169 169.147 67.1836L169.499 67.0574L169.041 66.8317C168.474 66.5539 168.024 66.083 167.773 65.5037L167.613 65.0322Z" fill="#EB592A"/>
<path d="M122.269 212.088L122.11 212.454C121.979 212.773 121.785 213.063 121.539 213.306C121.294 213.549 121.003 213.74 120.682 213.868L120.284 214.034L120.669 214.187C120.994 214.319 121.289 214.515 121.536 214.764C121.784 215.013 121.979 215.309 122.11 215.634L122.216 215.9L122.375 215.561C122.673 214.947 123.197 214.472 123.836 214.233L124.188 214.107L123.73 213.888C123.16 213.611 122.708 213.14 122.455 212.56L122.269 212.088Z" fill="#EB592A"/>
<path d="M130.489 147.813C131.184 147.973 131.906 147.973 132.601 147.813C131.905 147.663 131.185 147.663 130.489 147.813Z" fill="#EB592A"/>
<path d="M129.36 144.938C129.21 145.645 129.21 146.376 129.36 147.083C129.52 146.377 129.52 145.644 129.36 144.938Z" fill="#EB592A"/>
<path d="M128.152 147.747C127.813 147.629 127.453 147.588 127.096 147.627C126.738 147.589 126.375 147.63 126.034 147.747C126.375 147.864 126.738 147.905 127.096 147.866C127.453 147.905 127.813 147.864 128.152 147.747Z" fill="#EB592A"/>
<path d="M129.287 150.622C129.447 149.916 129.447 149.183 129.287 148.477C129.137 149.184 129.137 149.915 129.287 150.622Z" fill="#EB592A"/>
<path d="M127.581 149.393C127.627 149.433 127.84 149.261 128.046 149.015C128.252 148.769 128.378 148.53 128.331 148.49C128.285 148.451 128.072 148.617 127.866 148.862C127.661 149.108 127.528 149.347 127.581 149.393Z" fill="#EB592A"/>
<path d="M127.681 146.127C127.634 146.173 127.767 146.386 127.986 146.605C128.205 146.824 128.411 146.957 128.457 146.917C128.504 146.877 128.364 146.658 128.152 146.439C127.94 146.22 127.72 146.08 127.681 146.127Z" fill="#EB592A"/>
<path d="M130.104 146.957C130.144 147.01 130.343 146.91 130.549 146.737C130.755 146.565 130.888 146.386 130.848 146.339C130.808 146.293 130.609 146.386 130.403 146.558C130.197 146.731 130.064 146.91 130.104 146.957Z" fill="#EB592A"/>
<path d="M130.197 148.397C130.151 148.437 130.27 148.65 130.469 148.862C130.669 149.075 130.861 149.221 130.908 149.174C130.954 149.128 130.835 148.922 130.642 148.71C130.449 148.497 130.244 148.351 130.197 148.397Z" fill="#EB592A"/>
<path d="M131.047 293.847L131.127 292.797L142.634 293.123L142.295 297.598H141.585C138.424 297.519 125.523 296.934 123.471 296.157C121.18 295.241 131.047 293.847 131.047 293.847Z" fill="#EB592A"/>
<path d="M138.165 297.173C138.409 296.224 138.999 295.4 139.819 294.863C140.619 294.323 141.593 294.103 142.548 294.245L142.295 297.432L138.165 297.173Z" fill="#F5F5F5"/>
<path d="M126.213 294.71C126.213 294.71 122.74 295.414 123.119 296.005C123.497 296.596 136.512 297.651 142.295 297.611V297.366L127.103 296.27C127.103 296.27 126.877 294.776 126.213 294.71Z" fill="#F5F5F5"/>
<path d="M142.474 297.366H142.275H141.711L139.633 297.293C137.88 297.213 135.456 297.074 132.78 296.861C130.104 296.649 127.694 296.396 125.948 296.197L123.882 295.945L123.325 295.865L123.126 295.832C123.192 295.822 123.259 295.822 123.325 295.832L123.889 295.885L125.961 296.091C127.707 296.27 130.117 296.503 132.793 296.715C135.469 296.928 137.886 297.08 139.639 297.187L141.711 297.306L142.275 297.346C142.342 297.348 142.409 297.355 142.474 297.366Z" fill="#263238"/>
<path d="M127.09 296.423C127.03 296.071 126.927 295.728 126.784 295.4C126.594 295.094 126.371 294.809 126.12 294.55C126.451 294.728 126.719 295.003 126.888 295.338C127.058 295.673 127.121 296.051 127.07 296.423H127.09Z" fill="#263238"/>
<path d="M130.589 294.989C130.556 294.989 130.41 294.796 130.27 294.524C130.131 294.252 130.031 294.006 130.064 293.993C130.098 293.979 130.244 294.179 130.39 294.457C130.536 294.736 130.629 294.969 130.589 294.989Z" fill="#263238"/>
<path d="M131.552 294.577C131.552 294.577 131.359 294.464 131.173 294.272C130.987 294.079 130.868 293.906 130.894 293.88C130.921 293.853 131.094 293.986 131.273 294.179C131.452 294.371 131.585 294.55 131.552 294.577Z" fill="#263238"/>
<path d="M132.222 293.548C132.025 293.588 131.822 293.588 131.625 293.548C131.293 293.548 131.027 293.475 131.034 293.435C131.231 293.391 131.435 293.391 131.631 293.435C131.963 293.455 132.229 293.508 132.222 293.548Z" fill="#263238"/>
<path d="M130.283 293.96C130.038 293.984 129.791 293.964 129.553 293.9C129.291 293.846 129.035 293.766 128.789 293.661C128.637 293.605 128.493 293.532 128.358 293.442C128.316 293.415 128.279 293.38 128.251 293.339C128.222 293.298 128.202 293.251 128.192 293.203C128.184 293.147 128.193 293.091 128.216 293.04C128.24 292.99 128.278 292.947 128.325 292.917C128.512 292.838 128.715 292.802 128.918 292.814C129.121 292.826 129.319 292.884 129.496 292.984C129.673 293.084 129.825 293.223 129.939 293.391C130.054 293.559 130.129 293.751 130.157 293.953C130.157 294.079 130.157 294.152 130.157 294.152C130.103 293.916 130.009 293.692 129.878 293.488C129.728 293.281 129.52 293.122 129.281 293.03C129.142 292.972 128.993 292.942 128.843 292.942C128.692 292.942 128.543 292.972 128.404 293.03C128.285 293.11 128.318 293.249 128.438 293.335C128.564 293.418 128.697 293.489 128.836 293.548C129.075 293.65 129.322 293.734 129.573 293.8C130.011 293.92 130.29 293.94 130.283 293.96Z" fill="#263238"/>
<path d="M130.091 293.979C130.018 293.819 130.004 293.638 130.051 293.468C130.088 293.279 130.17 293.101 130.29 292.95C130.363 292.843 130.463 292.757 130.579 292.7C130.696 292.643 130.825 292.617 130.954 292.625C131.027 292.648 131.088 292.698 131.125 292.765C131.162 292.831 131.172 292.91 131.153 292.983C131.126 293.097 131.073 293.204 131.001 293.295C130.891 293.451 130.762 293.592 130.615 293.714C130.492 293.836 130.342 293.927 130.177 293.979C130.297 293.859 130.423 293.746 130.556 293.641C130.681 293.514 130.794 293.376 130.894 293.229C131.007 293.076 131.1 292.804 130.894 292.758C130.689 292.711 130.509 292.89 130.383 293.03C130.27 293.164 130.186 293.32 130.137 293.488C130.109 293.65 130.093 293.815 130.091 293.979Z" fill="#263238"/>
<path d="M142.494 294.212C142.494 294.212 142.169 294.152 141.651 294.172C140.973 294.193 140.315 294.404 139.753 294.782C139.19 295.161 138.746 295.69 138.471 296.31C138.258 296.788 138.212 297.113 138.192 297.107C138.172 297.1 138.192 297.021 138.192 296.874C138.232 296.669 138.29 296.466 138.364 296.27C138.623 295.617 139.074 295.057 139.657 294.665C140.24 294.272 140.928 294.066 141.631 294.072C141.843 294.074 142.054 294.097 142.262 294.139C142.415 294.172 142.494 294.199 142.494 294.212Z" fill="#263238"/>
<path d="M136.824 295.945C136.268 296.027 135.703 296.038 135.144 295.978C134.581 295.962 134.023 295.871 133.484 295.706C133.484 295.666 134.234 295.772 135.151 295.839C136.067 295.905 136.784 295.905 136.824 295.945Z" fill="#263238"/>
<path d="M139.055 296.124C139.055 296.124 138.982 296.277 138.896 296.436C138.809 296.596 138.749 296.748 138.71 296.748C138.67 296.748 138.663 296.562 138.769 296.37C138.876 296.177 139.035 296.091 139.055 296.124Z" fill="#263238"/>
<path d="M139.984 295.141C139.984 295.141 139.925 295.281 139.799 295.394C139.672 295.507 139.546 295.566 139.52 295.54C139.493 295.513 139.579 295.4 139.706 295.287C139.832 295.175 139.958 295.115 139.984 295.141Z" fill="#263238"/>
<path d="M141.226 294.756C141.226 294.796 141.06 294.756 140.888 294.829C140.715 294.902 140.589 294.955 140.562 294.929C140.536 294.902 140.642 294.75 140.854 294.697C141.067 294.643 141.239 294.71 141.226 294.756Z" fill="#263238"/>
<path d="M142.096 294.604C142.096 294.637 142.036 294.69 141.937 294.723C141.837 294.756 141.751 294.723 141.744 294.723C141.737 294.723 141.804 294.63 141.897 294.604C141.99 294.577 142.096 294.564 142.096 294.604Z" fill="#263238"/>
<path d="M144.891 274.385L142.508 293.183L131.399 293.05L133.351 271.609L144.891 274.385Z" fill="#F0B191"/>
<path d="M142.634 293.123L143.391 285.825L132.149 284.776L131.399 293.05L142.634 293.123Z" fill="#F5F5F5"/>
<path d="M131.884 286.569C133.75 286.903 135.635 287.124 137.528 287.233C139.41 287.446 141.304 287.548 143.198 287.539C141.333 287.198 139.448 286.976 137.554 286.875C135.672 286.654 133.778 286.552 131.884 286.569Z" fill="#455A64"/>
<path d="M131.817 287.286C133.684 287.62 135.568 287.842 137.461 287.95C139.344 288.163 141.237 288.265 143.132 288.256C141.266 287.915 139.381 287.693 137.488 287.592C135.606 287.375 133.712 287.273 131.817 287.286Z" fill="#455A64"/>
<path d="M127.322 94.1287L124.374 102.044H124.321L114.567 121.406C112.004 126.18 113.099 134.141 120.782 136.757C126.924 138.849 139.785 132.939 139.785 132.939L138.232 121.705L125.722 125.416L130.615 104.806C130.615 104.806 131.027 104.075 132.03 101.904L136.08 97.8272C136.08 97.8272 135.854 96.632 133.882 98.3783C133.64 98.5292 133.355 98.5976 133.07 98.5736C132.785 98.5495 132.515 98.4342 132.301 98.2448C132.087 98.0553 131.94 97.8019 131.882 97.5221C131.823 97.2423 131.856 96.9511 131.977 96.6917C132.178 96.3397 132.478 96.0543 132.84 95.8708C133.201 95.6872 133.609 95.6135 134.012 95.6586C134.415 95.7038 134.796 95.8659 135.108 96.125C135.42 96.3841 135.65 96.7288 135.768 97.1167C135.768 97.1167 136.545 97.4487 136.83 96.8577C137.116 96.2668 135.821 94.1553 134.174 94.1088C133.489 94.1038 132.81 94.2441 132.182 94.5205C132.182 94.5205 134.174 89.5073 133.756 89.328C133.338 89.1487 132.674 89.2749 130.556 94.7927C130.556 94.7927 131.811 90.3041 131.884 89.7065C131.957 89.1089 131.333 88.4847 130.781 89.8791L129.042 94.3013C129.042 94.3013 129.473 91.2602 129.493 91.0145C129.546 90.3505 128.929 90.231 128.61 91.0145C128.358 91.5856 127.322 94.1287 127.322 94.1287Z" fill="#FFD7C3"/>
<path d="M173.483 166.286L173.331 158.318C173.331 158.318 182.208 154.958 182.872 154.579L176.624 140.363L187.6 137.295C187.6 137.295 196.006 157.581 194.346 160.15C191.883 163.962 180.402 165.568 175.582 166.086L177.693 170.482L179.944 172.959L179.28 174.287C179.28 174.287 173.251 170.967 173.397 170.967C173.543 170.967 173.497 168.616 173.497 166.319L173.483 166.286Z" fill="#FFD7C3"/>
<path d="M168.185 96.871C168.218 95.8352 168.729 92.3957 168.762 91.3598C169.218 91.3688 169.669 91.2783 170.086 91.0949C170.503 90.9114 170.875 90.6392 171.176 90.2974C171.477 89.9555 171.7 89.5522 171.829 89.1155C171.958 88.6787 171.991 88.2191 171.924 87.7685C171.858 87.3179 171.694 86.8873 171.444 86.5065C171.194 86.1258 170.864 85.8041 170.477 85.5638C170.09 85.3235 169.655 85.1705 169.203 85.1153C168.751 85.0602 168.293 85.1042 167.859 85.2444C168.058 84.2622 167.92 83.2418 167.469 82.347C167.018 81.4523 166.279 80.7351 165.372 80.3107C164.464 79.8863 163.44 79.7794 162.464 80.007C161.488 80.2346 160.617 80.7836 159.991 81.5658C159.924 80.3573 158.616 79.6203 157.434 79.3348C156.446 79.042 155.387 79.0863 154.426 79.4609C153.956 79.6644 153.568 80.0214 153.327 80.4737C153.086 80.9261 153.005 81.4469 153.098 81.9509C152.67 81.4121 152.044 81.0656 151.36 80.9878C151.021 80.9492 150.678 80.9778 150.35 81.0719C150.023 81.1659 149.717 81.3236 149.45 81.5359C149.183 81.7483 148.961 82.0111 148.795 82.3093C148.63 82.6076 148.525 82.9355 148.487 83.2743C148.448 83.6131 148.477 83.9562 148.571 84.284C148.665 84.6118 148.822 84.9178 149.035 85.1846C148.36 85.5052 147.823 86.0584 147.522 86.7427C147.222 87.4271 147.178 88.1969 147.399 88.9109C147.62 89.6249 148.091 90.2353 148.726 90.6302C149.36 91.0251 150.116 91.1781 150.854 91.061" fill="#263238"/>
<path d="M166.239 116.691L154.241 115.735C154.161 114.328 154.241 108.909 154.241 108.909C154.241 108.909 149.247 108.132 149.188 103.139C149.128 98.1459 149.991 86.6853 149.991 86.6853C152.829 85.465 155.942 85.0247 159.007 85.4099C162.073 85.7952 164.98 86.9919 167.428 88.8765L168.165 89.4475L166.239 116.691Z" fill="#FFD7C3"/>
<path d="M151.697 95.2641C151.841 95.1356 151.928 94.9553 151.938 94.7629C151.949 94.5705 151.882 94.3818 151.754 94.2382C151.625 94.0947 151.445 94.0081 151.253 93.9976C151.06 93.987 150.872 94.0532 150.728 94.1818C150.586 94.3124 150.501 94.494 150.492 94.6868C150.484 94.8797 150.552 95.0681 150.681 95.211C150.81 95.3517 150.988 95.4362 151.179 95.4462C151.369 95.4561 151.555 95.3907 151.697 95.2641Z" fill="#263238"/>
<path d="M149.951 94.122C150.031 94.2084 150.522 93.8365 151.206 93.8299C151.89 93.8232 152.395 94.1818 152.468 94.0955C152.541 94.0092 152.428 93.8963 152.209 93.7369C151.919 93.5264 151.571 93.413 151.213 93.413C150.855 93.413 150.506 93.5264 150.217 93.7369C149.984 93.9295 149.911 94.0888 149.951 94.122Z" fill="#263238"/>
<path d="M158.298 94.7263C158.135 94.8278 158.019 94.9891 157.974 95.1754C157.929 95.3617 157.96 95.5581 158.059 95.7223C158.161 95.8853 158.324 96.0015 158.511 96.0462C158.699 96.0909 158.896 96.0604 159.061 95.9613C159.142 95.9112 159.213 95.8456 159.268 95.7682C159.324 95.6909 159.364 95.6033 159.386 95.5105C159.408 95.4177 159.411 95.3215 159.396 95.2274C159.381 95.1333 159.347 95.0431 159.297 94.962C159.247 94.8809 159.181 94.8105 159.104 94.7548C159.026 94.699 158.939 94.6591 158.846 94.6372C158.753 94.6153 158.657 94.6119 158.563 94.6272C158.469 94.6425 158.379 94.6762 158.298 94.7263Z" fill="#263238"/>
<path d="M157.421 94.7329C157.494 94.8192 157.986 94.4408 158.676 94.4341C159.367 94.4275 159.865 94.786 159.938 94.6997C160.011 94.6134 159.898 94.5072 159.679 94.3412C159.387 94.1268 159.032 94.0147 158.669 94.0224C158.308 94.0276 157.957 94.146 157.667 94.3611C157.454 94.5337 157.368 94.6931 157.421 94.7329Z" fill="#263238"/>
<path d="M154.666 100.403C154.309 100.264 153.932 100.183 153.55 100.164C153.371 100.164 153.231 100.105 153.218 100.012C153.21 99.8306 153.254 99.651 153.344 99.4938C153.523 99.0423 153.703 98.5775 153.889 98.0994C154.401 96.9175 154.795 95.6874 155.064 94.4275C154.433 95.55 153.917 96.7335 153.523 97.96C153.344 98.4447 153.178 98.9095 153.006 99.3677C152.891 99.6001 152.858 99.8645 152.913 100.118C152.938 100.186 152.978 100.247 153.031 100.297C153.084 100.347 153.148 100.383 153.218 100.403C153.318 100.428 153.421 100.441 153.523 100.443C153.904 100.496 154.29 100.483 154.666 100.403Z" fill="#263238"/>
<path d="M156.897 101.16C155.987 101.419 154.905 102.21 153.523 102.143C153.757 102.504 154.106 102.775 154.514 102.913C154.921 103.05 155.363 103.046 155.768 102.9C157.262 102.349 156.897 101.16 156.897 101.16Z" fill="white"/>
<path d="M153.975 102.641C154.502 102.535 155.016 102.373 155.509 102.156C156.018 101.984 156.499 101.738 156.936 101.426C156.936 101.426 156.272 101.712 155.456 102.03C154.949 102.201 154.455 102.405 153.975 102.641Z" fill="#E0E0E0"/>
<path d="M156.166 101.579L156.372 101.858L156.113 102.057L155.861 101.731L156.166 101.579Z" fill="#E0E0E0"/>
<path d="M155.203 102.03L155.396 102.316L155.13 102.502L154.891 102.17L155.203 102.03Z" fill="#E0E0E0"/>
<path d="M154.3 102.329L154.493 102.615L154.227 102.801L153.995 102.469L154.3 102.329Z" fill="#E0E0E0"/>
<path d="M154.254 108.836C156.558 108.881 158.824 108.239 160.761 106.99C160.761 106.99 159.227 110.583 154.241 110.131L154.254 108.836Z" fill="#F0B191"/>
<path d="M168.198 94.2748C168.311 94.2748 171.916 93.9959 171.319 98.2056C170.721 102.415 166.671 100.417 166.671 100.297C166.671 100.178 168.198 94.2748 168.198 94.2748Z" fill="#FFD7C3"/>
<path d="M168.178 99.0024C168.178 99.0024 168.244 99.0622 168.357 99.1419C168.523 99.2418 168.72 99.2728 168.908 99.2282C169.205 99.0948 169.46 98.8847 169.648 98.6198C169.836 98.3548 169.949 98.0446 169.977 97.7209C170.041 97.3607 170.023 96.9909 169.924 96.6386C169.906 96.4979 169.853 96.3638 169.771 96.248C169.689 96.1323 169.58 96.0384 169.453 95.9746C169.372 95.9383 169.28 95.9325 169.195 95.9581C169.109 95.9837 169.036 96.039 168.988 96.1141C168.915 96.2203 168.928 96.3133 168.908 96.3133C168.888 96.3133 168.829 96.2336 168.908 96.0609C168.943 95.9596 169.014 95.8745 169.108 95.8219C169.238 95.752 169.39 95.7353 169.533 95.7754C169.699 95.8341 169.847 95.9346 169.963 96.0671C170.08 96.1997 170.16 96.3599 170.197 96.5324C170.323 96.9222 170.353 97.337 170.283 97.7409C170.252 98.1191 170.109 98.4795 169.873 98.7763C169.636 99.0731 169.317 99.2928 168.955 99.4075C168.836 99.4251 168.714 99.4157 168.599 99.3801C168.484 99.3445 168.379 99.2835 168.291 99.2017C168.171 99.1087 168.165 99.0091 168.178 99.0024Z" fill="#F0B191"/>
<path d="M149.134 86.3134C149.258 85.8496 149.483 85.419 149.793 85.0527C150.103 84.6864 150.49 84.3935 150.927 84.1952C151.803 83.8088 152.736 83.5666 153.689 83.4781C157.043 83 160.529 82.7743 163.769 83.7703C165.38 84.177 166.809 85.1122 167.826 86.4263C168.643 87.6281 169.293 89.3744 168.716 90.636L167.926 97.9799C167.433 98.0297 166.937 98.0297 166.445 97.9799V92.1168C166.022 92.1791 165.59 92.1542 165.177 92.0437C164.573 91.8696 164.03 91.5275 163.613 91.0574C163.196 90.5872 162.921 90.0082 162.819 89.3877C162.356 90.0463 161.694 90.5397 160.93 90.7962C160.166 91.0526 159.341 91.0587 158.573 90.8135C157.806 90.5683 157.137 90.0847 156.663 89.433C156.19 88.7813 155.937 87.9955 155.94 87.1899C155.544 87.8998 154.966 88.4919 154.266 88.9059C153.567 89.32 152.77 89.5412 151.956 89.5471C150.31 89.4873 148.802 87.907 149.134 86.3134Z" fill="#263238"/>
<path d="M169.021 84.3015C169.101 84.3679 169.546 83.9164 170.203 83.5445C170.86 83.1727 171.471 83.0067 171.451 82.8805C171.432 82.7544 170.754 82.8008 170.03 83.2192C169.307 83.6375 168.948 84.255 169.021 84.3015Z" fill="#263238"/>
<path d="M168.835 83.5578C168.922 83.6043 169.28 82.9934 169.426 82.1501C169.57 81.6463 169.542 81.1091 169.347 80.6229C169.199 81.0996 169.11 81.5923 169.081 82.0904C168.946 82.5692 168.864 83.0612 168.835 83.5578Z" fill="#263238"/>
<path d="M165.163 95.9746C163.749 95.6559 162.56 95.4235 162.149 95.3836C162.21 95.1398 162.247 94.8908 162.262 94.64C162.278 93.8536 162.045 93.0822 161.598 92.4355C161.184 91.8313 160.596 91.3679 159.911 91.1075C159.296 90.8701 158.629 90.8013 157.979 90.9083C157.415 91.0027 156.883 91.2303 156.425 91.5723C155.764 92.0619 155.295 92.7662 155.097 93.5643C155.041 93.7814 155.01 94.0042 155.004 94.2283C154.993 94.3053 154.993 94.3837 155.004 94.4607C155.004 94.4607 155.004 94.142 155.183 93.6041C155.419 92.8475 155.898 92.1896 156.545 91.7316C157.021 91.3934 157.575 91.1807 158.155 91.1134C158.736 91.0461 159.324 91.1263 159.865 91.3465C160.502 91.5936 161.048 92.0291 161.432 92.5948C161.85 93.1984 162.066 93.9191 162.049 94.6533C162.015 95.3762 161.76 96.0714 161.319 96.6453C161.037 97.008 160.685 97.3112 160.286 97.5374C159.886 97.7637 159.445 97.9084 158.988 97.9634C158.532 98.0183 158.07 97.9824 157.627 97.8576C157.185 97.7327 156.772 97.5216 156.412 97.2362C155.79 96.7447 155.348 96.0603 155.157 95.2907C155.107 95.072 155.071 94.8502 155.051 94.6267C155.164 94.6267 155.237 94.5802 155.237 94.547C155.237 94.5138 155.157 94.474 155.031 94.4474C154.889 94.4155 154.744 94.3999 154.599 94.4009C154.421 94.3933 154.243 94.4066 154.068 94.4408C154.068 94.4408 154.068 94.4408 154.068 94.4009C154.085 93.6124 153.853 92.8385 153.404 92.1898C152.988 91.5876 152.4 91.1248 151.717 90.8618C151.103 90.6244 150.435 90.5557 149.785 90.6626C149.222 90.757 148.689 90.9847 148.231 91.3266C147.571 91.8162 147.101 92.5205 146.903 93.3186C146.848 93.5358 146.816 93.7585 146.81 93.9826C146.799 94.0596 146.799 94.138 146.81 94.215C146.81 94.215 146.81 93.8963 146.996 93.3584C147.189 92.7206 147.558 92.1503 148.061 91.7132C148.564 91.2761 149.18 90.9902 149.838 90.8884C150.451 90.7956 151.077 90.869 151.651 91.1008C152.31 91.3653 152.872 91.8253 153.261 92.4189C153.651 93.0125 153.849 93.7112 153.829 94.4208C153.8 95.1439 153.547 95.8401 153.105 96.4128C152.693 96.9592 152.123 97.3651 151.472 97.5748C150.922 97.7633 150.334 97.8098 149.762 97.7099C149.189 97.6101 148.651 97.3672 148.198 97.0038C147.576 96.5122 147.134 95.8279 146.943 95.0583C146.817 94.5138 146.837 94.1951 146.81 94.1951C146.802 94.2701 146.802 94.3458 146.81 94.4208C146.805 94.6437 146.825 94.8665 146.87 95.0848C147.027 95.8965 147.465 96.6273 148.105 97.1499C148.545 97.5175 149.066 97.7748 149.626 97.9002C150.269 98.0408 150.938 98.0087 151.565 97.8073C152.258 97.5821 152.868 97.1555 153.317 96.5818C153.767 96.0082 154.035 95.3137 154.088 94.5868C154.264 94.6327 154.444 94.6572 154.626 94.6599C154.767 94.6712 154.909 94.6712 155.051 94.6599C155.046 94.8828 155.066 95.1055 155.11 95.3239C155.248 96.0087 155.582 96.6387 156.071 97.1373C156.56 97.6359 157.184 97.9817 157.866 98.1326C158.794 98.3493 159.771 98.1923 160.585 97.6954C161.398 97.1985 161.984 96.4015 162.215 95.4766C162.6 95.616 163.776 95.9215 165.197 96.2402C166.237 96.5205 167.299 96.7181 168.37 96.8312C167.326 96.4591 166.254 96.1727 165.163 95.9746Z" fill="#263238"/>
<path d="M156.538 93.0729C156.684 93.5377 157.673 93.6373 158.782 93.7369C159.891 93.8365 160.894 93.8631 161.1 93.4249C161.193 93.2057 161.033 92.8937 160.642 92.6081C160.132 92.2557 159.534 92.0511 158.915 92.0172C158.297 91.9551 157.673 92.0678 157.116 92.3425C156.704 92.5617 156.478 92.8538 156.538 93.0729Z" fill="#263238"/>
<path d="M149.088 92.3957C149.261 92.8472 150.084 92.9534 150.954 93.0597C151.824 93.1659 152.674 93.1659 152.946 92.7409C153.052 92.5285 152.946 92.2296 152.634 91.9375C152.214 91.5856 151.693 91.3763 151.146 91.3399C150.599 91.2818 150.046 91.3956 149.566 91.6653C149.168 91.8844 149.015 92.1898 149.088 92.3957Z" fill="#263238"/>
<path d="M156.704 92.0039C156.624 91.9508 156.372 92.223 156.213 92.6679C156.053 93.1128 156.053 93.4581 156.146 93.478C156.239 93.4979 156.385 93.1792 156.531 92.814C156.677 92.4488 156.777 92.0504 156.704 92.0039Z" fill="#263238"/>
<path d="M169.26 274.445L168.636 293.375L157.561 294.285L157.501 272.751L169.26 274.445Z" fill="#F0B191"/>
<path d="M168.756 293.302L168.829 285.972H157.534L157.561 294.285L168.756 293.302Z" fill="#F5F5F5"/>
<path d="M157.282 295.108V294.052L168.776 293.309L168.849 297.797L168.138 297.851C164.984 298.063 152.089 298.714 149.971 298.096C147.587 297.412 157.282 295.108 157.282 295.108Z" fill="#EB592A"/>
<path d="M164.672 297.758C164.83 296.791 165.338 295.916 166.1 295.301C166.846 294.691 167.794 294.384 168.756 294.438L168.802 297.631L164.672 297.758Z" fill="#F0F0F0"/>
<path d="M152.547 296.403C152.547 296.403 149.154 297.426 149.586 297.983C150.018 298.541 163.072 298.368 168.842 297.797V297.538L153.616 297.864C153.616 297.864 153.211 296.423 152.547 296.403Z" fill="#F0F0F0"/>
<path d="M168.981 297.532H168.789L168.224 297.572L166.146 297.691C164.393 297.777 161.963 297.864 159.287 297.897C156.611 297.93 154.174 297.897 152.421 297.897L150.343 297.837H149.772H149.579H150.343H152.421C154.174 297.837 156.604 297.837 159.28 297.837C161.956 297.837 164.387 297.731 166.139 297.671L168.218 297.598H168.789L168.981 297.532Z" fill="#263238"/>
<path d="M153.583 298.03C153.487 297.686 153.351 297.354 153.178 297.04C152.971 296.75 152.731 296.484 152.461 296.25C152.805 296.4 153.097 296.649 153.297 296.967C153.497 297.284 153.597 297.655 153.583 298.03Z" fill="#263238"/>
<path d="M156.936 296.283C156.903 296.283 156.737 296.111 156.565 295.852C156.392 295.593 156.286 295.361 156.319 295.341C156.352 295.321 156.511 295.513 156.684 295.772C156.804 295.922 156.89 296.097 156.936 296.283Z" fill="#263238"/>
<path d="M157.853 295.785C157.853 295.785 157.647 295.693 157.448 295.52C157.248 295.347 157.109 295.181 157.129 295.155C157.149 295.128 157.341 295.241 157.541 295.414C157.74 295.586 157.879 295.752 157.853 295.785Z" fill="#263238"/>
<path d="M158.424 294.71C158.233 294.782 158.029 294.811 157.826 294.796C157.625 294.822 157.421 294.802 157.229 294.736C157.42 294.669 157.624 294.641 157.826 294.657C158.027 294.629 158.231 294.647 158.424 294.71Z" fill="#263238"/>
<path d="M156.531 295.294C156.29 295.336 156.043 295.336 155.801 295.294C155.533 295.267 155.268 295.214 155.011 295.135C154.856 295.093 154.706 295.033 154.566 294.955C154.522 294.932 154.482 294.9 154.45 294.861C154.418 294.823 154.394 294.778 154.38 294.73C154.368 294.676 154.371 294.62 154.39 294.568C154.409 294.516 154.442 294.471 154.486 294.438C154.764 294.292 155.085 294.249 155.391 294.317C155.697 294.385 155.969 294.56 156.16 294.809C156.275 294.951 156.359 295.117 156.405 295.294C156.423 295.359 156.423 295.428 156.405 295.493C156.329 295.266 156.212 295.055 156.06 294.869C155.892 294.679 155.673 294.541 155.429 294.471C155.286 294.423 155.134 294.405 154.983 294.418C154.833 294.43 154.686 294.473 154.553 294.544C154.44 294.63 154.486 294.763 154.619 294.843C154.752 294.911 154.889 294.969 155.031 295.015C155.28 295.096 155.536 295.158 155.794 295.201C156.253 295.274 156.531 295.268 156.531 295.294Z" fill="#263238"/>
<path d="M156.345 295.334C156.296 295.259 156.263 295.176 156.247 295.088C156.231 295 156.233 294.91 156.253 294.823C156.27 294.63 156.337 294.445 156.445 294.285C156.506 294.174 156.594 294.081 156.701 294.013C156.808 293.946 156.93 293.907 157.056 293.9C157.13 293.916 157.195 293.96 157.237 294.023C157.28 294.086 157.295 294.164 157.282 294.238C157.266 294.354 157.226 294.465 157.162 294.564C157.07 294.728 156.956 294.88 156.824 295.015C156.708 295.147 156.566 295.251 156.405 295.321C156.405 295.321 156.551 295.188 156.751 294.949C156.866 294.812 156.966 294.663 157.049 294.504C157.149 294.345 157.215 294.066 157.049 294.039C156.883 294.013 156.684 294.205 156.571 294.358C156.471 294.501 156.403 294.664 156.372 294.836C156.345 295 156.336 295.167 156.345 295.334Z" fill="#263238"/>
<path d="M168.709 294.404C168.709 294.404 168.384 294.404 167.866 294.444C167.194 294.528 166.558 294.8 166.033 295.228C165.513 295.66 165.122 296.227 164.904 296.868C164.732 297.359 164.718 297.691 164.692 297.691C164.679 297.614 164.679 297.536 164.692 297.459C164.706 297.249 164.746 297.041 164.811 296.841C165.008 296.166 165.403 295.567 165.947 295.121C166.49 294.678 167.154 294.408 167.853 294.345C168.073 294.325 168.296 294.325 168.517 294.345C168.583 294.355 168.648 294.375 168.709 294.404Z" fill="#263238"/>
<path d="M163.224 296.655C162.68 296.795 162.12 296.86 161.558 296.848C160.998 296.88 160.435 296.842 159.885 296.735C159.885 296.689 160.635 296.735 161.558 296.735C162.481 296.735 163.218 296.615 163.224 296.655Z" fill="#263238"/>
<path d="M165.469 296.629C165.469 296.629 165.409 296.788 165.336 296.954C165.263 297.12 165.216 297.279 165.183 297.279C165.15 297.279 165.117 297.1 165.183 296.901C165.25 296.702 165.442 296.596 165.469 296.629Z" fill="#263238"/>
<path d="M166.299 295.566C166.299 295.566 166.252 295.712 166.133 295.832C166.013 295.951 165.9 296.031 165.874 296.005C165.847 295.978 165.92 295.859 166.033 295.739C166.146 295.619 166.272 295.54 166.299 295.566Z" fill="#263238"/>
<path d="M167.501 295.068C167.501 295.108 167.341 295.108 167.175 295.168C167.009 295.228 166.883 295.321 166.857 295.294C166.83 295.268 166.916 295.108 167.129 295.035C167.341 294.962 167.514 295.035 167.501 295.068Z" fill="#263238"/>
<path d="M168.357 294.829C168.357 294.869 168.304 294.922 168.211 294.962C168.118 295.002 168.032 295.002 168.019 294.962C168.005 294.922 168.065 294.869 168.158 294.829C168.251 294.789 168.344 294.796 168.357 294.829Z" fill="#263238"/>
<path d="M157.434 287.784C159.323 287.936 161.219 287.976 163.112 287.904C165.007 287.948 166.903 287.872 168.789 287.678C166.9 287.526 165.005 287.487 163.112 287.559C161.216 287.515 159.32 287.59 157.434 287.784Z" fill="#455A64"/>
<path d="M157.434 288.501C159.323 288.657 161.219 288.697 163.112 288.621C165.007 288.661 166.902 288.588 168.789 288.402C166.901 288.242 165.005 288.2 163.112 288.276C161.216 288.24 159.321 288.315 157.434 288.501Z" fill="#455A64"/>
<path d="M126.558 124.626C130.798 123.177 134.918 121.401 138.882 119.314C146.791 114.666 150.801 114.367 153.185 114.235L153.523 110.178L167.016 109.454V114.421C169.232 114.569 171.424 114.97 173.55 115.616C178.902 117.548 183.231 120.509 185.701 126.904L190.873 138.398L176.312 142.229L173.849 136.857L173.55 150.934L173.39 166.206L139.433 168.131L140.662 152.773L141.432 137.016L131.525 139.872L126.558 124.626Z" fill="#EB592A"/>
<path d="M134.055 139.008C133.871 138.237 133.636 137.478 133.351 136.738C132.866 135.257 132.242 133.378 131.552 131.299C130.861 129.221 130.224 127.256 129.699 125.875C129.453 125.211 129.241 124.626 129.088 124.248C129.024 124.042 128.933 123.845 128.816 123.663C128.983 124.442 129.205 125.207 129.48 125.954C129.958 127.435 130.569 129.321 131.24 131.406C131.91 133.491 132.614 135.449 133.139 136.817C133.398 137.481 133.617 138.059 133.803 138.431C133.857 138.635 133.942 138.83 134.055 139.008Z" fill="#263238"/>
<path d="M175.13 140.117C175.337 140.131 175.544 140.117 175.748 140.077C176.139 140.031 176.704 139.945 177.401 139.825C178.795 139.586 180.721 139.161 182.793 138.643C184.864 138.125 186.777 137.495 188.105 137.01C188.769 136.771 189.306 136.565 189.665 136.412C189.861 136.347 190.049 136.258 190.223 136.147C189.475 136.314 188.74 136.536 188.025 136.811C186.697 137.236 184.818 137.793 182.713 138.344C180.608 138.896 178.729 139.321 177.361 139.619C176.607 139.735 175.862 139.901 175.13 140.117Z" fill="#263238"/>
<path d="M158.397 167.056C158.49 167.056 158.816 155.469 159.128 141.16C159.44 126.851 159.612 115.264 159.519 115.264C159.426 115.264 159.094 126.844 158.782 141.16C158.47 155.476 158.298 167.049 158.397 167.056Z" fill="#263238"/>
<path d="M157.7 124.42C157.667 124.467 157.873 124.6 157.879 124.932C157.883 125.018 157.869 125.104 157.837 125.184C157.805 125.264 157.756 125.337 157.693 125.396C157.612 125.452 157.518 125.485 157.42 125.491C157.322 125.496 157.224 125.475 157.137 125.429C157.05 125.384 156.977 125.315 156.927 125.231C156.876 125.146 156.85 125.05 156.85 124.952C156.863 124.867 156.895 124.786 156.944 124.715C156.992 124.643 157.055 124.584 157.129 124.54C157.401 124.354 157.627 124.447 157.647 124.394C157.667 124.341 157.428 124.141 156.983 124.321C156.863 124.374 156.758 124.455 156.675 124.556C156.592 124.658 156.534 124.777 156.505 124.905C156.49 125.071 156.524 125.239 156.604 125.385C156.684 125.532 156.805 125.652 156.953 125.729C157.101 125.807 157.269 125.839 157.435 125.821C157.601 125.803 157.758 125.736 157.886 125.629C157.977 125.533 158.043 125.416 158.08 125.289C158.117 125.162 158.123 125.028 158.098 124.898C158.032 124.454 157.7 124.374 157.7 124.42Z" fill="#263238"/>
<path d="M157.043 138.564C157.009 138.61 157.215 138.743 157.222 139.075C157.227 139.161 157.214 139.247 157.183 139.327C157.152 139.407 157.104 139.48 157.043 139.54C156.963 139.6 156.868 139.635 156.769 139.641C156.67 139.646 156.571 139.623 156.485 139.573C156.394 139.533 156.318 139.466 156.266 139.382C156.214 139.298 156.188 139.2 156.193 139.101C156.206 139.016 156.239 138.934 156.287 138.862C156.335 138.79 156.398 138.729 156.472 138.683C156.744 138.497 156.976 138.59 156.99 138.537C157.003 138.484 156.777 138.285 156.359 138.464C156.238 138.516 156.131 138.596 156.048 138.698C155.965 138.799 155.907 138.92 155.881 139.048C155.863 139.215 155.896 139.382 155.975 139.53C156.054 139.677 156.175 139.797 156.323 139.875C156.471 139.953 156.639 139.985 156.805 139.967C156.971 139.948 157.128 139.88 157.255 139.772C157.347 139.677 157.415 139.56 157.452 139.433C157.489 139.306 157.494 139.172 157.468 139.042C157.368 138.603 157.043 138.517 157.043 138.564Z" fill="#263238"/>
<path d="M157.043 149.672C157.009 149.719 157.215 149.852 157.222 150.184C157.226 150.269 157.213 150.355 157.182 150.435C157.151 150.515 157.104 150.588 157.043 150.648C156.963 150.708 156.868 150.743 156.769 150.749C156.67 150.755 156.571 150.732 156.485 150.682C156.394 150.64 156.317 150.573 156.265 150.488C156.213 150.402 156.188 150.303 156.193 150.203C156.207 150.118 156.24 150.037 156.288 149.965C156.336 149.893 156.398 149.831 156.472 149.785C156.744 149.606 156.976 149.699 156.99 149.646C157.003 149.593 156.777 149.393 156.359 149.573C156.238 149.624 156.131 149.705 156.048 149.806C155.965 149.908 155.907 150.028 155.881 150.157C155.863 150.323 155.896 150.491 155.975 150.638C156.054 150.786 156.175 150.906 156.323 150.984C156.471 151.062 156.639 151.094 156.805 151.075C156.971 151.057 157.128 150.989 157.255 150.881C157.347 150.785 157.415 150.669 157.452 150.542C157.489 150.415 157.494 150.28 157.468 150.15C157.368 149.705 157.043 149.626 157.043 149.672Z" fill="#263238"/>
<path d="M156.379 159.519C156.379 159.566 156.558 159.699 156.565 160.031C156.566 160.204 156.499 160.371 156.379 160.495C156.297 160.55 156.201 160.579 156.103 160.579C156.005 160.579 155.909 160.55 155.828 160.495C155.736 160.456 155.66 160.39 155.607 160.306C155.555 160.221 155.53 160.123 155.535 160.024C155.548 159.939 155.579 159.857 155.626 159.785C155.673 159.713 155.735 159.652 155.808 159.606C156.08 159.42 156.312 159.513 156.332 159.46C156.352 159.407 156.113 159.207 155.668 159.387C155.527 159.447 155.405 159.546 155.318 159.672C155.231 159.798 155.181 159.947 155.175 160.1C155.169 160.254 155.207 160.406 155.284 160.539C155.361 160.672 155.474 160.78 155.61 160.851C155.747 160.922 155.9 160.953 156.053 160.94C156.206 160.927 156.352 160.87 156.475 160.777C156.597 160.684 156.69 160.559 156.744 160.415C156.797 160.271 156.809 160.115 156.777 159.964C156.704 159.553 156.379 159.473 156.379 159.519Z" fill="#263238"/>
<path d="M150.27 114.44L148.922 142.475H146.79L148.118 114.998L150.27 114.44Z" fill="#263238"/>
<path d="M148.856 144.792L146.744 167.932C146.059 167.92 145.377 167.844 144.706 167.707C144.772 167.587 146.664 144.792 146.664 144.792H148.856Z" fill="#263238"/>
<path d="M146.744 142.428C146.744 142.528 147.215 142.614 147.806 142.621C148.397 142.627 148.875 142.561 148.882 142.468C148.889 142.375 148.404 142.289 147.813 142.275C147.222 142.262 146.744 142.335 146.744 142.428Z" fill="#263238"/>
<path d="M146.744 144.699C146.744 144.799 147.196 144.898 147.753 144.925C148.311 144.951 148.776 144.925 148.776 144.799C148.776 144.672 148.331 144.606 147.773 144.579C147.215 144.553 146.744 144.606 146.744 144.699Z" fill="#263238"/>
<path d="M147.906 144.845C148.006 144.845 148.145 144.294 148.225 143.59C148.304 142.886 148.291 142.315 148.192 142.302C148.092 142.289 147.959 142.853 147.879 143.557C147.8 144.261 147.813 144.832 147.906 144.845Z" fill="#263238"/>
<path d="M147.282 144.878C147.381 144.878 147.521 144.38 147.594 143.736C147.667 143.092 147.66 142.567 147.594 142.554C147.528 142.541 147.355 143.052 147.282 143.696C147.209 144.34 147.189 144.865 147.282 144.878Z" fill="#263238"/>
<path d="M170.097 144.845L169.665 166.525C168.92 166.63 168.167 166.674 167.414 166.657C167.481 166.525 167.919 144.845 167.919 144.845H170.097Z" fill="#263238"/>
<path d="M170.608 114.679L170.309 142.475H168.171L168.47 114.374L170.608 114.679Z" fill="#263238"/>
<path d="M168.191 142.514C168.191 142.614 168.669 142.674 169.254 142.66C169.838 142.647 170.309 142.561 170.303 142.468C170.296 142.375 169.831 142.302 169.247 142.315C168.663 142.328 168.191 142.421 168.191 142.514Z" fill="#263238"/>
<path d="M167.833 144.852C167.833 144.945 168.317 145.117 168.968 145.124C169.619 145.131 170.123 144.978 170.104 144.885C170.084 144.792 169.586 144.792 168.975 144.779C168.364 144.765 167.853 144.759 167.833 144.852Z" fill="#263238"/>
<path d="M169.32 145.057C169.413 145.057 169.526 144.52 169.566 143.849C169.606 143.178 169.566 142.621 169.466 142.614C169.366 142.607 169.26 143.152 169.22 143.829C169.181 144.506 169.194 145.051 169.32 145.057Z" fill="#263238"/>
<path d="M168.656 145.057C168.756 145.057 168.862 144.52 168.902 143.849C168.942 143.178 168.902 142.621 168.802 142.614C168.703 142.607 168.596 143.152 168.556 143.829C168.517 144.506 168.583 145.051 168.656 145.057Z" fill="#263238"/>
<path d="M154.453 111.884C155.117 111.525 157.567 112.907 158.915 113.723C158.944 113.549 159.002 113.38 159.088 113.225H160.94C160.94 113.225 160.974 113.318 161.013 113.471C162.024 112.727 163.17 112.185 164.386 111.877C164.512 111.85 164.642 111.851 164.767 111.879C164.892 111.908 165.009 111.964 165.11 112.043C165.211 112.123 165.293 112.223 165.351 112.338C165.408 112.453 165.439 112.579 165.442 112.707C165.495 114.035 165.575 116.512 165.183 116.691C164.559 117.03 162.335 115.815 160.954 114.985C160.9 115.121 160.836 115.252 160.761 115.377L158.835 115.257C158.835 115.257 158.835 115.138 158.835 114.965C157.77 115.771 156.556 116.36 155.263 116.698C155.138 116.724 155.009 116.723 154.885 116.694C154.76 116.665 154.644 116.608 154.544 116.529C154.444 116.45 154.362 116.35 154.305 116.235C154.248 116.121 154.217 115.996 154.214 115.868C154.141 114.54 154.048 112.11 154.453 111.884Z" fill="#455A64"/>
<path d="M158.935 115.151C159.028 115.151 158.968 114.686 159.015 114.162C159.061 113.637 159.174 113.219 159.081 113.172C158.988 113.126 158.709 113.537 158.669 114.135C158.63 114.733 158.849 115.184 158.935 115.151Z" fill="#263238"/>
<path d="M156.04 113.438C156.04 113.531 156.591 113.776 157.322 113.996C157.759 114.176 158.231 114.253 158.703 114.221C158.736 114.128 158.158 113.876 157.421 113.664C156.684 113.451 156.1 113.325 156.04 113.438Z" fill="#263238"/>
<path d="M155.94 114.958C156.437 115.031 156.944 114.987 157.421 114.832C157.923 114.789 158.409 114.633 158.842 114.374C158.344 114.301 157.835 114.341 157.355 114.494C156.855 114.542 156.372 114.7 155.94 114.958Z" fill="#263238"/>
<path d="M160.894 115.171C160.98 115.171 161.166 114.826 161.193 114.321C161.219 113.816 161.093 113.418 161.007 113.431C160.92 113.444 160.881 113.83 160.847 114.294C160.814 114.759 160.794 115.151 160.894 115.171Z" fill="#263238"/>
<path d="M164.433 113.723C163.872 113.608 163.294 113.608 162.733 113.723C162.159 113.734 161.592 113.858 161.067 114.089C162.203 114.19 163.348 114.061 164.433 113.71V113.723Z" fill="#263238"/>
<path d="M163.703 115.224C163.703 115.131 163.145 114.839 162.375 114.56C161.929 114.346 161.441 114.233 160.947 114.228C160.907 114.321 161.498 114.613 162.275 114.892C163.052 115.171 163.676 115.317 163.703 115.224Z" fill="#263238"/>
<path d="M173.331 166.06L171.671 282.791L155.09 281.994L154.26 191.152L147.375 282.791H130.031L139.433 168.118L173.331 166.06Z" fill="#263238"/>
<path d="M172.082 282.233V285.128L154.905 284.697L154.679 281.191L172.082 282.233Z" fill="#455A64"/>
<path d="M147.528 282.233V285.128L129.845 284.471L130.117 281.191L147.528 282.233Z" fill="#455A64"/>
<path d="M156.857 180.402C156.693 180.373 156.533 180.326 156.379 180.263C156.185 180.156 156.018 180.006 155.893 179.824C155.767 179.642 155.686 179.433 155.655 179.214C155.611 178.527 155.651 177.838 155.774 177.162C155.867 176.365 155.96 175.509 156.06 174.612C156.253 172.799 156.412 171.159 156.505 169.964C156.593 169.324 156.621 168.677 156.591 168.032C156.423 168.658 156.314 169.298 156.266 169.944C156.106 171.126 155.914 172.766 155.721 174.592C155.628 175.489 155.542 176.345 155.462 177.142C155.342 177.846 155.326 178.565 155.416 179.273C155.463 179.522 155.57 179.755 155.729 179.952C155.888 180.149 156.093 180.304 156.326 180.402C156.664 180.502 156.863 180.415 156.857 180.402Z" fill="#455A64"/>
<path d="M158.577 167.74C158.577 167.74 158.284 167.866 157.952 168.264C157.745 168.518 157.638 168.84 157.654 169.167C157.67 169.369 157.746 169.561 157.873 169.718C157.942 169.814 158.033 169.892 158.138 169.945C158.243 169.998 158.359 170.025 158.477 170.024C158.693 170.006 158.898 169.917 159.057 169.77C159.217 169.624 159.324 169.428 159.36 169.214C159.421 168.896 159.367 168.566 159.207 168.284C158.955 167.826 158.723 167.62 158.689 167.62C158.656 167.62 158.809 167.919 158.982 168.357C159.081 168.594 159.104 168.857 159.048 169.108C159.021 169.245 158.951 169.37 158.849 169.466C158.746 169.561 158.616 169.622 158.477 169.639C158.205 169.639 158.005 169.36 157.972 169.088C157.947 168.833 158.01 168.577 158.152 168.364C158.397 168.005 158.623 167.78 158.577 167.74Z" fill="#455A64"/>
<path d="M163.649 281.729C163.742 281.729 163.829 257.493 163.829 227.613C163.829 197.733 163.762 173.49 163.663 173.49C163.563 173.49 163.49 197.713 163.483 227.613C163.477 257.513 163.557 281.729 163.649 281.729Z" fill="#455A64"/>
<path d="M139.062 282.393C139.079 282.303 139.09 282.212 139.095 282.12C139.095 281.928 139.135 281.662 139.161 281.33C139.214 280.606 139.287 279.584 139.387 278.269C139.573 275.613 139.832 271.742 140.164 266.981C140.828 257.459 141.664 244.325 142.627 229.797C143.59 215.269 144.287 202.128 144.719 192.613C144.938 187.852 145.091 183.981 145.177 181.325C145.217 179.997 145.243 178.975 145.27 178.257C145.27 177.919 145.27 177.653 145.27 177.461C145.277 177.37 145.277 177.279 145.27 177.188C145.262 177.277 145.262 177.366 145.27 177.454C145.27 177.653 145.237 177.919 145.217 178.251C145.184 178.975 145.13 180.004 145.057 181.319C144.925 183.975 144.732 187.846 144.493 192.607C143.995 202.122 143.225 215.269 142.302 229.791C141.379 244.312 140.542 257.433 139.938 266.975C139.659 271.722 139.427 275.567 139.274 278.263C139.201 279.591 139.148 280.613 139.115 281.33C139.115 281.669 139.115 281.934 139.081 282.127C139.066 282.215 139.06 282.304 139.062 282.393Z" fill="#455A64"/>
</svg>
