<svg width="40" height="40" viewBox="0 0 40 40" fill="none" xmlns="http://www.w3.org/2000/svg">
<g id="Menu">
<path id="Rectangle 4019" d="M5 13.3334H31.8C32.9201 13.3334 33.4802 13.3334 33.908 13.5514C34.2843 13.7431 34.5903 14.0491 34.782 14.4254C35 14.8532 35 15.4133 35 16.5334V30.1334C35 31.2535 35 31.8135 34.782 32.2414C34.5903 32.6177 34.2843 32.9236 33.908 33.1154C33.4802 33.3334 32.9201 33.3334 31.8 33.3334H8.2C7.0799 33.3334 6.51984 33.3334 6.09202 33.1154C5.71569 32.9236 5.40973 32.6177 5.21799 32.2414C5 31.8135 5 31.2535 5 30.1334V13.3334Z" fill="#7E869E" fill-opacity="0.25"/>
<path id="Rectangle 4018" d="M5 12.3334C5 10.4478 5 9.50495 5.58579 8.91916C6.17157 8.33337 7.11438 8.33337 9 8.33337H15.0098C15.8273 8.33337 16.2361 8.33337 16.6036 8.48561C16.9711 8.63786 17.2602 8.92689 17.8382 9.50495L21.6667 13.3334H5V12.3334Z" fill="#7E869E" fill-opacity="0.25"/>
<path id="Vector" d="M15 23.3334H20M20 23.3334H25M20 23.3334V28.3334M20 23.3334V18.3334" stroke="#222222"/>
</g>
</svg>
