<svg width="25" height="25" viewBox="0 0 25 25" fill="none" xmlns="http://www.w3.org/2000/svg">
<g clip-path="url(#clip0_2014_2428)">
<path d="M21.0233 12.4998L10.9583 22.5643C10.7474 22.7753 10.6289 23.0615 10.6289 23.3599C10.629 23.6583 10.7475 23.9445 10.9586 24.1555C11.1696 24.3665 11.4558 24.4849 11.7542 24.4849C12.0526 24.4849 12.3388 24.3663 12.5497 24.1552L23.4097 13.2967C23.6207 13.0857 23.7392 12.7995 23.7392 12.5012C23.7392 12.2028 23.6207 11.9167 23.4097 11.7057L12.5497 0.844308C12.3388 0.633275 12.0526 0.514692 11.7542 0.514648C11.4558 0.514604 11.1696 0.633102 10.9586 0.844074C10.7475 1.05505 10.629 1.34121 10.6289 1.63961C10.6289 1.93801 10.7474 2.22421 10.9583 2.43525L21.0233 12.4998Z" fill="#CED1D7"/>
<path d="M1.5912 24.1555C1.80217 24.3664 2.08831 24.485 2.38667 24.485C2.68502 24.485 2.97116 24.3664 3.18213 24.1555L14.0426 13.2969C14.2536 13.0859 14.3721 12.7998 14.3721 12.5014C14.3721 12.2031 14.2536 11.9169 14.0426 11.7059L3.18213 0.844537C2.97058 0.636397 2.68534 0.520285 2.38856 0.521494C2.09178 0.522702 1.80751 0.641133 1.59765 0.850989C1.38779 1.06085 1.26936 1.34512 1.26815 1.6419C1.26695 1.93868 1.38306 2.22392 1.5912 2.43547L11.6576 12.5L1.5912 22.5645C1.38023 22.7755 1.26172 23.0617 1.26172 23.36C1.26172 23.6584 1.38023 23.9445 1.5912 24.1555Z" fill="#CED1D7"/>
</g>
<defs>
<clipPath id="clip0_2014_2428">
<rect width="24" height="24" fill="white" transform="translate(0.5 0.5)"/>
</clipPath>
</defs>
</svg>
