<svg width="25" height="25" viewBox="0 0 25 25" fill="none" xmlns="http://www.w3.org/2000/svg">
<g clip-path="url(#clip0_2014_2402)">
<path d="M3.97667 12.4998L14.0417 22.5643C14.2526 22.7753 14.3711 23.0615 14.3711 23.3599C14.371 23.6583 14.2525 23.9445 14.0414 24.1555C13.8304 24.3665 13.5442 24.4849 13.2458 24.4849C12.9474 24.4849 12.6612 24.3663 12.4503 24.1552L1.59026 13.2967C1.3793 13.0857 1.26078 12.7995 1.26078 12.5012C1.26078 12.2028 1.3793 11.9167 1.59026 11.7057L12.4503 0.844308C12.6612 0.633275 12.9474 0.514692 13.2458 0.514648C13.5442 0.514604 13.8304 0.633102 14.0414 0.844074C14.2525 1.05505 14.371 1.34121 14.3711 1.63961C14.3711 1.93801 14.2526 2.22421 14.0417 2.43525L3.97667 12.4998Z" fill="#CED1D7"/>
<path d="M23.4088 24.1555C23.1978 24.3664 22.9117 24.485 22.6133 24.485C22.315 24.485 22.0288 24.3664 21.8179 24.1555L10.9574 13.2969C10.7464 13.0859 10.6279 12.7998 10.6279 12.5014C10.6279 12.2031 10.7464 11.9169 10.9574 11.7059L21.8179 0.844537C22.0294 0.636397 22.3147 0.520285 22.6114 0.521494C22.9082 0.522702 23.1925 0.641133 23.4024 0.850989C23.6122 1.06085 23.7306 1.34512 23.7318 1.6419C23.7331 1.93868 23.6169 2.22392 23.4088 2.43547L13.3424 12.5L23.4088 22.5645C23.6198 22.7755 23.7383 23.0617 23.7383 23.36C23.7383 23.6584 23.6198 23.9445 23.4088 24.1555Z" fill="#CED1D7"/>
</g>
<defs>
<clipPath id="clip0_2014_2402">
<rect width="24" height="24" fill="white" transform="matrix(-1 0 0 1 24.5 0.5)"/>
</clipPath>
</defs>
</svg>
