<svg width="22" height="23" viewBox="0 0 22 23" fill="none" xmlns="http://www.w3.org/2000/svg">
<g id="Group">
<path id="Vector" d="M18.5 16.051V13.5C18.5 12.122 17.378 11 16 11H11.5V6.949C13.192 6.704 14.5 5.258 14.5 3.5C14.5 1.57 12.93 0 11 0C9.07 0 7.5 1.57 7.5 3.5C7.5 5.258 8.808 6.704 10.5 6.949V11H6C5.3372 11.0008 4.70178 11.2644 4.23311 11.7331C3.76444 12.2018 3.50079 12.8372 3.5 13.5V16.051C1.808 16.296 0.5 17.742 0.5 19.5C0.5 21.43 2.07 23 4 23C5.93 23 7.5 21.43 7.5 19.5C7.5 17.742 6.192 16.296 4.5 16.051V13.5C4.5 12.673 5.173 12 6 12H16C16.827 12 17.5 12.673 17.5 13.5V16.051C15.808 16.296 14.5 17.742 14.5 19.5C14.5 21.43 16.07 23 18 23C19.93 23 21.5 21.43 21.5 19.5C21.5 17.742 20.192 16.296 18.5 16.051Z" fill="#121212"/>
</g>
</svg>
