<svg width="24" height="16" viewBox="0 0 24 16" fill="none" xmlns="http://www.w3.org/2000/svg">
<path d="M12 0.846863C7.41454 0.846863 3.25621 3.35561 0.187788 7.43048C-0.0625959 7.76432 -0.0625959 8.23072 0.187788 8.56457C3.25621 12.6443 7.41454 15.1531 12 15.1531C16.5855 15.1531 20.7438 12.6443 23.8122 8.56948C24.0626 8.23563 24.0626 7.76923 23.8122 7.43539C20.7438 3.35561 16.5855 0.846863 12 0.846863ZM12.3289 13.0371C9.28506 13.2286 6.7714 10.7198 6.96287 7.67104C7.11998 5.15739 9.15741 3.11995 11.6711 2.96285C14.7149 2.77138 17.2286 5.28012 17.0371 8.32891C16.8751 10.8377 14.8377 12.8751 12.3289 13.0371ZM12.1767 10.71C10.537 10.8131 9.18196 9.463 9.28997 7.82324C9.37343 6.46822 10.4732 5.3734 11.8282 5.28503C13.4679 5.18193 14.823 6.53204 14.7149 8.17181C14.6266 9.53174 13.5268 10.6265 12.1767 10.71Z" fill="#081D14" fill-opacity="0.5"/>
</svg>
