<svg width="20" height="20" viewBox="0 0 20 20" fill="none" xmlns="http://www.w3.org/2000/svg">
<path fillRule="evenodd" clipRule="evenodd" d="M0.417969 2.5C0.417969 1.90326 0.655022 1.33097 1.07698 0.90901C1.49894 0.487053 2.07123 0.25 2.66797 0.25H17.668C18.2647 0.25 18.837 0.487053 19.259 0.90901C19.6809 1.33097 19.918 1.90326 19.918 2.5V10C19.918 10.1989 19.839 10.3897 19.6983 10.5303C19.5576 10.671 19.3669 10.75 19.168 10.75C18.9691 10.75 18.7783 10.671 18.6376 10.5303C18.497 10.3897 18.418 10.1989 18.418 10V2.5C18.418 2.30109 18.339 2.11032 18.1983 1.96967C18.0576 1.82902 17.8669 1.75 17.668 1.75H2.66797C2.46906 1.75 2.27829 1.82902 2.13764 1.96967C1.99699 2.11032 1.91797 2.30109 1.91797 2.5V17.5C1.91797 17.914 2.25397 18.25 2.66797 18.25H10.168C10.3669 18.25 10.5576 18.329 10.6983 18.4697C10.839 18.6103 10.918 18.8011 10.918 19C10.918 19.1989 10.839 19.3897 10.6983 19.5303C10.5576 19.671 10.3669 19.75 10.168 19.75H2.66797C2.07123 19.75 1.49894 19.5129 1.07698 19.091C0.655022 18.669 0.417969 18.0967 0.417969 17.5V2.5Z" fill="black"/>
<path fillRule="evenodd" clipRule="evenodd" d="M14.168 11.75C13.5712 11.75 12.9989 11.9871 12.577 12.409C12.155 12.831 11.918 13.4033 11.918 14C11.918 14.5967 12.155 15.169 12.577 15.591C12.9989 16.0129 13.5712 16.25 14.168 16.25C14.7647 16.25 15.337 16.0129 15.759 15.591C16.1809 15.169 16.418 14.5967 16.418 14C16.418 13.4033 16.1809 12.831 15.759 12.409C15.337 11.9871 14.7647 11.75 14.168 11.75ZM10.418 14C10.418 13.0054 10.8131 12.0516 11.5163 11.3483C12.2196 10.6451 13.1734 10.25 14.168 10.25C15.1625 10.25 16.1164 10.6451 16.8196 11.3483C17.5229 12.0516 17.918 13.0054 17.918 14C17.918 14.9946 17.5229 15.9484 16.8196 16.6517C16.1164 17.3549 15.1625 17.75 14.168 17.75C13.1734 17.75 12.2196 17.3549 11.5163 16.6517C10.8131 15.9484 10.418 14.9946 10.418 14Z" fill="black"/>
<path fillRule="evenodd" clipRule="evenodd" d="M16.082 15.532C16.2061 15.3766 16.3869 15.2769 16.5845 15.2547C16.7822 15.2326 16.9805 15.2899 17.136 15.414L19.636 17.414C19.7129 17.4755 19.777 17.5516 19.8246 17.6379C19.8721 17.7242 19.9022 17.819 19.9131 17.9169C19.924 18.0148 19.9155 18.1139 19.8882 18.2086C19.8608 18.3032 19.815 18.3915 19.7535 18.4685C19.6919 18.5455 19.6159 18.6095 19.5296 18.6571C19.4433 18.7046 19.3485 18.7347 19.2506 18.7456C19.1526 18.7566 19.0535 18.7481 18.9589 18.7207C18.8642 18.6933 18.7759 18.6475 18.699 18.586L16.199 16.586C16.0437 16.4617 15.9442 16.2809 15.9222 16.0832C15.9003 15.8856 15.9577 15.6873 16.082 15.532ZM4.41797 6C4.41797 5.80109 4.49699 5.61032 4.63764 5.46967C4.77829 5.32902 4.96906 5.25 5.16797 5.25H15.168C15.3669 5.25 15.5576 5.32902 15.6983 5.46967C15.839 5.61032 15.918 5.80109 15.918 6C15.918 6.19891 15.839 6.38968 15.6983 6.53033C15.5576 6.67098 15.3669 6.75 15.168 6.75H5.16797C4.96906 6.75 4.77829 6.67098 4.63764 6.53033C4.49699 6.38968 4.41797 6.19891 4.41797 6ZM4.41797 10C4.41797 9.80109 4.49699 9.61032 4.63764 9.46967C4.77829 9.32902 4.96906 9.25 5.16797 9.25H9.16797C9.36688 9.25 9.55765 9.32902 9.6983 9.46967C9.83895 9.61032 9.91797 9.80109 9.91797 10C9.91797 10.1989 9.83895 10.3897 9.6983 10.5303C9.55765 10.671 9.36688 10.75 9.16797 10.75H5.16797C4.96906 10.75 4.77829 10.671 4.63764 10.5303C4.49699 10.3897 4.41797 10.1989 4.41797 10Z" fill="black"/>
</svg>
