<svg width="40" height="40" viewBox="0 0 40 40" fill="none" xmlns="http://www.w3.org/2000/svg">
<g id="Group">
<path id="Vector" d="M17.4598 39.9985C27.1026 39.9985 34.9196 32.1814 34.9196 22.5387C34.9196 12.8959 27.1026 5.07886 17.4598 5.07886C7.81702 5.07886 0 12.8959 0 22.5387C0 32.1814 7.81702 39.9985 17.4598 39.9985Z" fill="#FD646F"/>
<path id="Vector_2" d="M34.92 22.5386C34.92 32.1811 27.1027 39.9984 17.4602 39.9984C12.2279 39.9984 7.53235 37.6963 4.33301 34.0491C7.40626 36.7465 11.4341 38.3817 15.8435 38.3817C25.486 38.3817 33.3033 30.5644 33.3033 20.9219C33.3033 16.5125 31.6681 12.4846 28.9707 9.41138C32.6179 12.6107 34.92 17.3063 34.92 22.5386Z" fill="#FC4755"/>
<path id="Vector_3" d="M17.4599 35.7144C24.7366 35.7144 30.6355 29.8155 30.6355 22.5387C30.6355 15.262 24.7366 9.36304 17.4599 9.36304C10.1831 9.36304 4.28418 15.262 4.28418 22.5387C4.28418 29.8155 10.1831 35.7144 17.4599 35.7144Z" fill="#F5F5F5"/>
<path id="Vector_4" d="M30.6351 22.5386C30.6351 29.8151 24.736 35.7142 17.4595 35.7142C13.4097 35.7142 9.78684 33.8866 7.36914 31.0122C9.65993 32.9376 12.616 34.0976 15.8428 34.0976C23.1193 34.0976 29.0185 28.1984 29.0185 20.9219C29.0185 17.6951 27.8585 14.739 25.9331 12.4482C28.8075 14.8659 30.6351 18.4888 30.6351 22.5386Z" fill="#E6E6E6"/>
<path id="Vector_5" d="M17.4599 31.4301C22.3706 31.4301 26.3515 27.4492 26.3515 22.5385C26.3515 17.6279 22.3706 13.647 17.4599 13.647C12.5492 13.647 8.56836 17.6279 8.56836 22.5385C8.56836 27.4492 12.5492 31.4301 17.4599 31.4301Z" fill="#FD646F"/>
<path id="Vector_6" d="M26.3513 22.5386C26.3513 27.4492 22.3703 31.4302 17.4598 31.4302C14.5926 31.4302 12.0416 30.073 10.416 27.9657C11.9171 29.1248 13.7997 29.8135 15.8431 29.8135C20.7537 29.8135 24.7347 25.8325 24.7347 20.922C24.7347 18.8785 24.046 16.9959 22.8868 15.4949C24.9941 17.1204 26.3513 19.6715 26.3513 22.5386Z" fill="#FC4755"/>
<path id="Vector_7" d="M17.4602 27.0652C19.9602 27.0652 21.9868 25.0386 21.9868 22.5386C21.9868 20.0386 19.9602 18.012 17.4602 18.012C14.9602 18.012 12.9336 20.0386 12.9336 22.5386C12.9336 25.0386 14.9602 27.0652 17.4602 27.0652Z" fill="#F5F5F5"/>
<path id="Vector_8" d="M33.98 28.2043C33.6385 29.2004 33.2069 30.1633 32.6907 31.0811L28.793 29.2632C29.3273 28.3659 29.7573 27.3992 30.0669 26.3799L33.98 28.2043Z" fill="#FC4755"/>
<path id="Vector_9" d="M30.0669 26.3799C29.7604 27.3889 29.3326 28.3571 28.793 29.2632L24.8799 27.4388C25.4658 26.5559 25.8875 25.5745 26.1247 24.5417L30.0669 26.3799Z" fill="#E6E6E6"/>
<path id="Vector_10" d="M26.124 24.5416C25.8868 25.5743 25.4651 26.5557 24.8792 27.4386L20.8359 25.5536C21.5359 24.7696 21.9676 23.7406 21.9854 22.6113L26.124 24.5416Z" fill="#FC4755"/>
<path id="Vector_11" d="M21.9854 22.6114C21.9676 23.7406 21.5359 24.7696 20.8359 25.5537L17.0489 23.7875C16.3085 23.4431 15.9625 22.596 16.2269 21.841C16.2446 21.7917 16.264 21.7424 16.2867 21.6931C16.471 21.2986 16.7967 21.0165 17.1766 20.8783C17.5549 20.7409 17.9874 20.7466 18.381 20.9309L21.9854 22.6114Z" fill="#E6E6E6"/>
<path id="Vector_12" d="M39.8644 7.29046C39.9939 7.31205 40.045 7.47088 39.9524 7.564L38.2422 9.28201L37.193 10.3361L34.326 13.2155C34.2352 13.3067 34.1239 13.3749 34.0015 13.4144C33.879 13.4539 33.7488 13.4636 33.6218 13.4427L29.3457 12.7384L32.5483 9.56169L33.6096 8.50925L35.5617 6.57251L39.8644 7.29046Z" fill="#50758D"/>
<path id="Vector_13" d="M38.2427 9.28204L37.1935 10.3361L32.5488 9.56172L33.6102 8.50928L38.2427 9.28204Z" fill="#2B597F"/>
<path id="Vector_14" d="M33.5151 4.70619L31.5727 6.60656L30.5162 7.64041L27.325 10.763L26.6123 6.43213C26.5915 6.30552 26.6011 6.17576 26.6403 6.0536C26.6796 5.93144 26.7474 5.82039 26.838 5.72961L29.7168 2.84786L30.7701 1.79299L32.5126 0.0490342C32.606 -0.0444081 32.7659 0.00748633 32.7867 0.137869L33.5151 4.70619Z" fill="#50758D"/>
<path id="Vector_15" d="M31.5727 6.60654L30.5162 7.64039L29.7168 2.84783L30.77 1.79297L31.5727 6.60654Z" fill="#2B597F"/>
<path id="Vector_16" d="M37.2101 4.44504C37.2101 4.84759 37.0565 5.25175 36.7485 5.55892L18.8288 23.4787C18.2516 24.0566 17.3374 24.0922 16.7182 23.5853C16.6778 23.5522 16.6382 23.5166 16.6002 23.4787C16.4536 23.3325 16.3373 23.1587 16.2581 22.9674C16.1789 22.7761 16.1383 22.571 16.1387 22.364C16.1387 21.9614 16.2923 21.5573 16.6002 21.2501L34.52 3.33037C35.1351 2.71442 36.1334 2.71442 36.7485 3.33037C36.7865 3.36836 36.8221 3.40796 36.8552 3.44838C37.0921 3.73776 37.2101 4.091 37.2101 4.44504Z" fill="#918291"/>
<path id="Vector_17" d="M37.2106 4.44515C37.2106 4.8477 37.057 5.25186 36.749 5.55902L18.8293 23.4788C18.2521 24.0567 17.3379 24.0923 16.7188 23.5855L36.8557 3.44849C37.0926 3.73787 37.2106 4.0911 37.2106 4.44515Z" fill="#7A6E79"/>
</g>
</svg>
