<svg width="24" height="25" viewBox="0 0 24 25" fill="none" xmlns="http://www.w3.org/2000/svg">
<g clip-path="url(#clip0_1719_11791)">
<path d="M20.4833 4.01661C15.7949 -0.671853 8.20579 -0.672557 3.51667 4.01661C-1.17185 8.70504 -1.1726 16.2942 3.51667 20.9833C8.20513 25.6718 15.7942 25.6725 20.4833 20.9833C25.1718 16.2949 25.1726 8.70574 20.4833 4.01661ZM12 22.5264C6.47138 22.5264 1.97352 18.0285 1.97352 12.4999C1.97352 6.97137 6.47138 2.47356 12 2.47356C17.5285 2.47356 22.0264 6.97142 22.0264 12.5C22.0264 18.0286 17.5286 22.5264 12 22.5264Z" fill="black"/>
<path d="M15.609 11.7224L11.1041 8.21859C10.4578 7.71579 9.51367 8.1781 9.51367 8.99648V16.004C9.51367 16.8282 10.4639 17.2797 11.1041 16.7819L15.609 13.2781C16.1156 12.884 16.1162 12.1169 15.609 11.7224ZM11.4845 13.9891V11.0113L13.3989 12.5002L11.4845 13.9891Z" fill="black"/>
</g>
<defs>
<clipPath id="clip0_1719_11791">
<rect width="24" height="24" fill="white" transform="translate(0 0.5)"/>
</clipPath>
</defs>
</svg>
