<svg width="182" height="65" viewBox="0 0 182 65" fill="none" xmlns="http://www.w3.org/2000/svg">
<path d="M27.1818 36.4831C11.8554 37.7552 1 63.2738 1 63.2738H181V9.6924C181 9.6924 157.414 -3.21897 142.545 0.76217C124.516 5.5898 132.193 30.1696 114.727 36.4831C97.8361 42.5888 83.8416 19.6155 68.9091 29.0412C60.3105 34.4689 64.851 46.6623 55 49.8784C43.4306 53.6556 39.4231 35.467 27.1818 36.4831Z" fill="url(#paint0_linear_5818_16092)"/>
<path d="M1 63.9999C1 63.9999 11.8554 38.4813 27.1818 37.2092C39.4231 36.1932 43.4306 54.3818 55 50.6046C64.851 47.3884 60.3105 35.195 68.9091 29.7674C83.8416 20.3416 97.8361 43.3149 114.727 37.2092C132.193 30.8958 124.516 6.31594 142.545 1.48831C157.414 -2.49283 181 10.4185 181 10.4185" stroke="#41C88B" stroke-width="0.642043"/>
<defs>
<linearGradient id="paint0_linear_5818_16092" x1="91" y1="17.1163" x2="91" y2="68.4651" gradientUnits="userSpaceOnUse">
<stop stop-color="#C4FFE4"/>
<stop offset="1" stop-color="white" stop-opacity="0"/>
</linearGradient>
</defs>
</svg>
