<svg width="24" height="24" viewBox="0 0 24 24" fill="none" xmlns="http://www.w3.org/2000/svg">
<path d="M18 10.5H17.625C17.5413 10.4999 17.4599 10.4718 17.394 10.4202C17.3281 10.3685 17.2813 10.2963 17.2612 10.215L17.1412 9.73125L16.71 9.99C16.6381 10.032 16.5544 10.0493 16.4718 10.0391C16.3891 10.0289 16.3121 9.99193 16.2525 9.93375L15.1912 8.8725C15.1329 8.81223 15.0959 8.73457 15.0857 8.65131C15.0756 8.56806 15.0929 8.48377 15.135 8.41125L15.3937 7.98375L14.91 7.86375C14.8287 7.84365 14.7565 7.79691 14.7048 7.73099C14.6532 7.66507 14.6251 7.58375 14.625 7.5V6C14.6251 5.91625 14.6532 5.83493 14.7048 5.76901C14.7565 5.70309 14.8287 5.65635 14.91 5.63625L15.3937 5.51625L15.135 5.085C15.093 5.0131 15.0757 4.9294 15.0859 4.84676C15.0961 4.76411 15.1331 4.68708 15.1912 4.6275L16.2525 3.56625C16.3121 3.50807 16.3891 3.47106 16.4718 3.4609C16.5544 3.45074 16.6381 3.46799 16.71 3.51L17.1412 3.76875L17.2612 3.285C17.2813 3.2037 17.3281 3.13147 17.394 3.07981C17.4599 3.02816 17.5413 3.00006 17.625 3H18V1.875C18 1.77554 17.9605 1.68016 17.8902 1.60984C17.8198 1.53951 17.7245 1.5 17.625 1.5H16.5V1.875C16.4991 2.17309 16.3803 2.45873 16.1695 2.66951C15.9587 2.8803 15.6731 2.99911 15.375 3H8.625C8.32691 2.99911 8.04127 2.8803 7.83049 2.66951C7.6197 2.45873 7.50089 2.17309 7.5 1.875V1.5H6.375C6.27554 1.5 6.18016 1.53951 6.10983 1.60984C6.03951 1.68016 6 1.77554 6 1.875V11.25H18V10.5ZM8.25 4.875H9.75V5.625H8.25V4.875ZM8.25 6.375H9V7.125H8.25V6.375ZM11.25 8.625H8.25V7.875H11.25V8.625ZM13.5 8.625H12V7.875H13.5V8.625ZM13.5 7.125H9.75V6.375H13.5V7.125ZM13.5 5.625H10.5V4.875H13.5V5.625ZM18.375 13.5C18.3742 12.9463 18.5786 12.4119 18.9487 12H3.75C3.35218 12 2.97064 12.158 2.68934 12.4393C2.40804 12.7206 2.25 13.1022 2.25 13.5C2.25 13.8978 2.40804 14.2794 2.68934 14.5607C2.97064 14.842 3.35218 15 3.75 15H18.9487C18.5786 14.5881 18.3742 14.0537 18.375 13.5ZM16.125 13.875H3V13.125H16.125V13.875ZM17.625 13.875H16.875V13.125H17.625V13.875ZM3 19.5C2.60218 19.5 2.22064 19.658 1.93934 19.9393C1.65804 20.2206 1.5 20.6022 1.5 21C1.5 21.3978 1.65804 21.7794 1.93934 22.0607C2.22064 22.342 2.60218 22.5 3 22.5H18.1987C17.8293 22.0877 17.625 21.5536 17.625 21C17.625 20.4464 17.8293 19.9123 18.1987 19.5H3ZM15.375 21.375H2.25V20.625H15.375V21.375ZM16.875 21.375H16.125V20.625H16.875V21.375Z" fill="black"/>
<path d="M8.625 2.25H15.375C15.4745 2.25 15.5698 2.21049 15.6402 2.14016C15.7105 2.06984 15.75 1.97446 15.75 1.875V1.5H8.25V1.875C8.25 1.97446 8.28951 2.06984 8.35983 2.14016C8.43016 2.21049 8.52554 2.25 8.625 2.25ZM17.745 4.44C17.73 4.49699 17.7022 4.54986 17.6639 4.59466C17.6256 4.63946 17.5777 4.67504 17.5238 4.69875C17.4692 4.72048 17.4105 4.72942 17.3519 4.72487C17.2934 4.72031 17.2368 4.7024 17.1863 4.6725L16.5787 4.305L15.93 4.95375L16.2975 5.56125C16.328 5.61167 16.3463 5.66859 16.3507 5.72738C16.3551 5.78617 16.3456 5.84517 16.323 5.8996C16.3003 5.95403 16.2652 6.00235 16.2203 6.04064C16.1755 6.07894 16.1223 6.10613 16.065 6.12L15.375 6.2925V7.2075L16.065 7.38C16.1223 7.39387 16.1755 7.42106 16.2203 7.45936C16.2652 7.49765 16.3003 7.54597 16.323 7.6004C16.3456 7.65483 16.3551 7.71383 16.3507 7.77262C16.3463 7.83141 16.328 7.88833 16.2975 7.93875L15.93 8.54625L16.5787 9.195L17.1863 8.8275C17.2368 8.7976 17.2934 8.77969 17.3519 8.77514C17.4105 8.77058 17.4692 8.77952 17.5238 8.80125C17.5777 8.82496 17.6256 8.86054 17.6639 8.90534C17.7022 8.95014 17.73 9.00301 17.745 9.06L17.9175 9.75H18.8325L19.005 9.06C19.02 9.00301 19.0478 8.95014 19.0861 8.90534C19.1244 8.86054 19.1723 8.82496 19.2262 8.80125C19.2808 8.77952 19.3395 8.77058 19.3981 8.77514C19.4566 8.77969 19.5132 8.7976 19.5637 8.8275L20.1713 9.195L20.82 8.54625L20.4525 7.93875C20.422 7.88833 20.4037 7.83141 20.3993 7.77262C20.3949 7.71383 20.4044 7.65483 20.427 7.6004C20.4497 7.54597 20.4848 7.49765 20.5297 7.45936C20.5745 7.42106 20.6277 7.39387 20.685 7.38L21.375 7.2075V6.2925L20.685 6.12C20.6277 6.10613 20.5745 6.07894 20.5297 6.04064C20.4848 6.00235 20.4497 5.95403 20.427 5.8996C20.4044 5.84517 20.3949 5.78617 20.3993 5.72738C20.4037 5.66859 20.422 5.61167 20.4525 5.56125L20.82 4.95375L20.1713 4.305L19.5637 4.6725C19.5132 4.7024 19.4566 4.72031 19.3981 4.72487C19.3395 4.72942 19.2808 4.72048 19.2262 4.69875C19.1723 4.67504 19.1244 4.63946 19.0861 4.59466C19.0478 4.54986 19.02 4.49699 19.005 4.44L18.8325 3.75H17.9175L17.745 4.44ZM19.875 6.75C19.875 7.04667 19.787 7.33668 19.6222 7.58335C19.4574 7.83003 19.2231 8.02229 18.949 8.13582C18.6749 8.24935 18.3733 8.27906 18.0824 8.22118C17.7914 8.1633 17.5241 8.02044 17.3143 7.81066C17.1046 7.60088 16.9617 7.33361 16.9038 7.04264C16.8459 6.75166 16.8756 6.45006 16.9892 6.17597C17.1027 5.90189 17.295 5.66762 17.5416 5.5028C17.7883 5.33797 18.0783 5.25 18.375 5.25C18.7728 5.25 19.1544 5.40804 19.4357 5.68934C19.717 5.97064 19.875 6.35218 19.875 6.75Z" fill="black"/>
<path d="M18.375 7.5C18.7892 7.5 19.125 7.16421 19.125 6.75C19.125 6.33579 18.7892 6 18.375 6C17.9608 6 17.625 6.33579 17.625 6.75C17.625 7.16421 17.9608 7.5 18.375 7.5Z" fill="black"/>
<path d="M6 15.75C5.60218 15.75 5.22064 15.908 4.93934 16.1893C4.65804 16.4706 4.5 16.8522 4.5 17.25C4.5 17.6478 4.65804 18.0294 4.93934 18.3107C5.22064 18.592 5.60218 18.75 6 18.75H21.1987C20.8293 18.3377 20.625 17.8036 20.625 17.25C20.625 16.6964 20.8293 16.1623 21.1987 15.75H6ZM6 17.625H5.25V16.875H6V17.625ZM19.875 17.625H6.75V16.875H19.875V17.625Z" fill="black"/>
</svg>
