<svg width="24" height="24" viewBox="0 0 24 24" fill="none" xmlns="http://www.w3.org/2000/svg">
<path d="M22.5 15.2812H11.7188C11.4609 15.2812 11.25 15.0703 11.25 14.8125V8.95312C11.25 8.69531 11.4609 8.48438 11.7188 8.48438C11.9766 8.48438 12.1875 8.69531 12.1875 8.95312V14.3438H22.0312V4.03125H12.1875V6.14062C12.1875 6.39844 11.9766 6.60938 11.7188 6.60938C11.4609 6.60938 11.25 6.39844 11.25 6.14062V3.5625C11.25 3.30469 11.4609 3.09375 11.7188 3.09375H22.5C22.7578 3.09375 22.9688 3.30469 22.9688 3.5625V14.8125C22.9688 15.0703 22.7578 15.2812 22.5 15.2812ZM5.39062 6.60938C3.97031 6.60938 2.8125 5.45156 2.8125 4.03125C2.8125 2.61094 3.97031 1.45312 5.39062 1.45312C6.81094 1.45312 7.96875 2.61094 7.96875 4.03125C7.96875 5.45156 6.81094 6.60938 5.39062 6.60938ZM5.39062 2.39062C4.48594 2.39062 3.75 3.12656 3.75 4.03125C3.75 4.93594 4.48594 5.67188 5.39062 5.67188C6.29531 5.67188 7.03125 4.93594 7.03125 4.03125C7.03125 3.12656 6.29531 2.39062 5.39062 2.39062ZM6.09375 22.7812C5.83594 22.7812 5.625 22.5703 5.625 22.3125V15.2812C5.625 15.0234 5.83594 14.8125 6.09375 14.8125C6.35156 14.8125 6.5625 15.0234 6.5625 15.2812V22.3125C6.5625 22.5703 6.35156 22.7812 6.09375 22.7812Z" fill="black"/>
<path d="M8.90625 22.7812H3.28125C3.02344 22.7812 2.8125 22.5703 2.8125 22.3125V15.75H0.46875C0.210938 15.75 0 15.5391 0 15.2812V8.48438C0 6.93281 1.26094 5.67188 2.8125 5.67188H11.7188C12.7547 5.67188 13.5938 6.51094 13.5938 7.54688C13.5938 8.58281 12.7547 9.42188 11.7188 9.42188H9.375V22.3125C9.375 22.5703 9.16406 22.7812 8.90625 22.7812ZM3.75 21.8438H8.4375V8.95312C8.4375 8.69531 8.64844 8.48438 8.90625 8.48438H11.7188C12.2344 8.48438 12.6562 8.0625 12.6562 7.54688C12.6562 7.03125 12.2344 6.60938 11.7188 6.60938H2.8125C1.77656 6.60938 0.9375 7.44844 0.9375 8.48438V14.8125H2.8125V10.125C2.8125 9.86719 3.02344 9.65625 3.28125 9.65625C3.53906 9.65625 3.75 9.86719 3.75 10.125V21.8438Z" fill="black"/>
<path d="M8.90625 15.75H3.28125C3.02344 15.75 2.8125 15.5391 2.8125 15.2812C2.8125 15.0234 3.02344 14.8125 3.28125 14.8125H8.90625C9.16406 14.8125 9.375 15.0234 9.375 15.2812C9.375 15.5391 9.16406 15.75 8.90625 15.75ZM20.625 7.78125H15C14.7422 7.78125 14.5312 7.57031 14.5312 7.3125C14.5312 7.05469 14.7422 6.84375 15 6.84375H20.625C20.8828 6.84375 21.0938 7.05469 21.0938 7.3125C21.0938 7.57031 20.8828 7.78125 20.625 7.78125ZM20.625 5.90625H15C14.7422 5.90625 14.5312 5.69531 14.5312 5.4375C14.5312 5.17969 14.7422 4.96875 15 4.96875H20.625C20.8828 4.96875 21.0938 5.17969 21.0938 5.4375C21.0938 5.69531 20.8828 5.90625 20.625 5.90625ZM20.625 9.65625H15C14.7422 9.65625 14.5312 9.44531 14.5312 9.1875C14.5312 8.92969 14.7422 8.71875 15 8.71875H20.625C20.8828 8.71875 21.0938 8.92969 21.0938 9.1875C21.0938 9.44531 20.8828 9.65625 20.625 9.65625ZM20.625 13.4062H13.5938C13.3359 13.4062 13.125 13.1953 13.125 12.9375C13.125 12.6797 13.3359 12.4688 13.5938 12.4688H20.625C20.8828 12.4688 21.0938 12.6797 21.0938 12.9375C21.0938 13.1953 20.8828 13.4062 20.625 13.4062ZM20.625 11.5312H13.5938C13.3359 11.5312 13.125 11.3203 13.125 11.0625C13.125 10.8047 13.3359 10.5938 13.5938 10.5938H20.625C20.8828 10.5938 21.0938 10.8047 21.0938 11.0625C21.0938 11.3203 20.8828 11.5312 20.625 11.5312ZM23.4375 4.03125H10.7812C10.5234 4.03125 10.3125 3.82031 10.3125 3.5625V1.6875C10.3125 1.42969 10.5234 1.21875 10.7812 1.21875H23.4375C23.6953 1.21875 23.9062 1.42969 23.9062 1.6875V3.5625C23.9062 3.82031 23.6953 4.03125 23.4375 4.03125ZM11.25 3.09375H22.9688V2.15625H11.25V3.09375ZM14.0625 22.7812C13.8047 22.7812 13.5938 22.5703 13.5938 22.3125V21.375C13.5938 21.2391 13.6547 21.1078 13.7578 21.0187L16.875 18.3469V14.8125C16.875 14.5547 17.0859 14.3438 17.3438 14.3438C17.6016 14.3438 17.8125 14.5547 17.8125 14.8125V18.5625C17.8125 18.6984 17.7516 18.8297 17.6484 18.9188L14.5312 21.5906V22.3125C14.5312 22.5703 14.3203 22.7812 14.0625 22.7812Z" fill="black"/>
<path d="M20.6253 22.7815C20.3675 22.7815 20.1565 22.5706 20.1565 22.3128V21.5909L17.0393 18.919C16.8425 18.7503 16.819 18.455 16.9878 18.2581C17.1565 18.0612 17.4518 18.0378 17.6487 18.2065L20.93 21.019C21.0331 21.1081 21.094 21.2393 21.094 21.3753V22.3128C21.094 22.5706 20.8831 22.7815 20.6253 22.7815Z" fill="black"/>
<path d="M17.3438 22.7812C17.0859 22.7812 16.875 22.5703 16.875 22.3125V18.5625C16.875 18.3047 17.0859 18.0938 17.3438 18.0938C17.6016 18.0938 17.8125 18.3047 17.8125 18.5625V22.3125C17.8125 22.5703 17.6016 22.7812 17.3438 22.7812Z" fill="black"/>
</svg>
