<svg width="24" height="24" viewBox="0 0 24 24" fill="none" xmlns="http://www.w3.org/2000/svg">
<path d="M8.60442 17.256H15.3978C16.6778 17.256 17.5711 15.9846 17.1444 14.7726C16.6191 13.2853 15.4798 12.146 14.0778 11.5653C14.5809 11.0372 14.862 10.336 14.8631 9.60663C14.8622 8.84785 14.5604 8.1204 14.0239 7.58386C13.4873 7.04733 12.7599 6.74551 12.0011 6.74463C11.2423 6.74551 10.5149 7.04733 9.97832 7.58386C9.44179 8.1204 9.13997 8.84785 9.13909 9.60663C9.13909 10.366 9.44042 11.052 9.92442 11.5646C8.52242 12.146 7.38309 13.2846 6.85776 14.7726C6.43109 15.984 7.32442 17.256 8.60442 17.256ZM10.4724 9.60663C10.4724 8.76396 11.1578 8.07796 12.0011 8.07796C12.8444 8.07796 13.5298 8.76396 13.5298 9.60663C13.5298 10.4493 12.8438 11.136 12.0011 11.136C11.1584 11.136 10.4724 10.4493 10.4724 9.60663ZM8.11509 15.2166C8.40002 14.4136 8.92652 13.7185 9.62231 13.2267C10.3181 12.735 11.149 12.4706 12.0011 12.47C12.8531 12.4706 13.6841 12.735 14.3799 13.2267C15.0757 13.7185 15.6022 14.4136 15.8871 15.2166C15.9162 15.2957 15.9259 15.3806 15.9152 15.4642C15.9046 15.5478 15.874 15.6276 15.826 15.6968C15.778 15.7661 15.714 15.8228 15.6395 15.8621C15.5649 15.9014 15.482 15.9221 15.3978 15.9226H8.60442C8.52016 15.9221 8.43726 15.9014 8.36272 15.8621C8.28818 15.8228 8.22421 15.7661 8.17621 15.6968C8.1282 15.6276 8.09759 15.5478 8.08695 15.4642C8.07631 15.3806 8.08597 15.2957 8.11509 15.2166Z" fill="black"/>
<path d="M2.68346 14.4626L3.86013 14.6859C3.99079 15.0833 4.15346 15.4753 4.34479 15.8579L3.67279 16.8493C3.22613 17.5093 3.30879 18.3973 3.87146 18.9613L5.03346 20.1266C5.30693 20.4001 5.66691 20.5702 6.05188 20.6078C6.43685 20.6454 6.82292 20.5481 7.14412 20.3326L8.14546 19.6593C8.51546 19.8459 8.90479 20.0079 9.30946 20.1413L9.53679 21.3173C9.61106 21.6968 9.81476 22.0388 10.1131 22.2849C10.4115 22.531 10.786 22.6659 11.1728 22.6666H12.8295C13.2164 22.6664 13.5913 22.5316 13.8898 22.2853C14.1883 22.039 14.3918 21.6965 14.4655 21.3166L14.6921 20.1419C15.0975 20.0086 15.4868 19.8473 15.8561 19.6593L16.8441 20.3286C17.1645 20.5458 17.5506 20.6447 17.9359 20.6083C18.3213 20.572 18.682 20.4026 18.9561 20.1293L20.1261 18.9626C20.6928 18.3993 20.7781 17.5093 20.3295 16.8473L19.6581 15.8579C19.8495 15.4746 20.0115 15.0826 20.1421 14.6859L21.3188 14.4626C21.6999 14.3899 22.0438 14.1866 22.2913 13.8878C22.5388 13.589 22.6744 13.2133 22.6748 12.8253V11.1786C22.6744 10.7914 22.5394 10.4165 22.2928 10.118C22.0463 9.81951 21.7036 9.61608 21.3235 9.54259L20.1421 9.31525C20.0093 8.91516 19.8475 8.52524 19.6581 8.14859L20.3301 7.15792C20.7768 6.49792 20.6928 5.60925 20.1288 5.04459L18.9581 3.87459C18.6833 3.60061 18.3216 3.43091 17.9352 3.39466C17.5488 3.3584 17.1618 3.45785 16.8408 3.67592L15.8555 4.34659C15.4809 4.1566 15.0925 3.99547 14.6935 3.86459L14.4661 2.68459C14.3924 2.30448 14.1888 1.96184 13.8902 1.71532C13.5916 1.4688 13.2167 1.33374 12.8295 1.33325H11.1735C10.7863 1.33364 10.4114 1.46868 10.1129 1.71523C9.81439 1.96178 9.61096 2.30448 9.53746 2.68459L9.30946 3.86459C8.90479 3.99859 8.51546 4.15992 8.14613 4.34725L7.14679 3.67192C6.8254 3.45476 6.43838 3.3564 6.05231 3.39376C5.66624 3.43111 5.30525 3.60184 5.03146 3.87659L3.86879 5.04659C3.59702 5.3211 3.42882 5.68134 3.39284 6.06596C3.35685 6.45057 3.45532 6.83576 3.67146 7.15592L4.34479 8.14925C4.15212 8.53259 3.99013 8.92259 3.86013 9.31592L2.68013 9.54259C2.29979 9.61623 1.95691 9.81986 1.71024 10.1186C1.46358 10.4173 1.32849 10.7925 1.32812 11.1799V12.8266C1.32812 13.6253 1.89746 14.3126 2.68346 14.4626ZM2.66146 11.1799C2.66129 11.1024 2.68815 11.0272 2.73744 10.9673C2.78672 10.9075 2.85533 10.8667 2.93146 10.8519L4.50746 10.5479C4.62978 10.5246 4.74311 10.4675 4.83457 10.383C4.92602 10.2985 4.99193 10.19 5.02479 10.0699C5.18345 9.49884 5.41113 8.94923 5.70279 8.43325C5.76335 8.32535 5.79267 8.20272 5.78749 8.07909C5.78231 7.95546 5.74283 7.83571 5.67346 7.73325L4.77546 6.40792C4.73244 6.34388 4.71291 6.26691 4.72021 6.19011C4.7275 6.1133 4.76115 6.04139 4.81546 5.98659L5.97679 4.81792C6.03162 4.76303 6.10383 4.72889 6.18105 4.72135C6.25827 4.71381 6.33571 4.73333 6.40013 4.77659L7.73479 5.67992C7.83856 5.75015 7.96002 5.78971 8.08524 5.79408C8.21047 5.79844 8.33439 5.76742 8.44279 5.70459C8.93813 5.41792 9.48413 5.19125 10.0661 5.02992C10.1858 4.99687 10.2938 4.93105 10.378 4.83987C10.4622 4.7487 10.5193 4.6358 10.5428 4.51392L10.8475 2.93725C10.8621 2.86135 10.9028 2.79291 10.9624 2.74365C11.022 2.6944 11.0968 2.66739 11.1741 2.66725H12.8301C12.9075 2.66742 12.9825 2.69452 13.0421 2.74391C13.1017 2.7933 13.1422 2.86189 13.1568 2.93792L13.4601 4.51392C13.5081 4.76259 13.6935 4.96192 13.9375 5.02992C14.5201 5.19059 15.0661 5.41792 15.5615 5.70459C15.7828 5.83259 16.0588 5.82192 16.2715 5.67792L17.5928 4.77792C17.6569 4.73412 17.7344 4.71415 17.8117 4.72145C17.889 4.72876 17.9613 4.76289 18.0161 4.81792L19.1861 5.98659C19.2995 6.09992 19.3161 6.27859 19.2261 6.41059L18.3295 7.73325C18.2602 7.83551 18.2208 7.95497 18.2155 8.07834C18.2102 8.2017 18.2393 8.32411 18.2995 8.43192C18.5988 8.96659 18.8275 9.51859 18.9795 10.0693C19.0461 10.3146 19.2461 10.4999 19.4955 10.5473L21.0715 10.8519C21.1474 10.8666 21.2158 10.9072 21.2651 10.9668C21.3143 11.0264 21.3413 11.1013 21.3415 11.1786V12.8253C21.3415 12.9853 21.2268 13.1233 21.0701 13.1526L19.4968 13.4519C19.3743 13.4752 19.2608 13.5324 19.1692 13.6171C19.0777 13.7017 19.0117 13.8103 18.9788 13.9306C18.8255 14.4893 18.5968 15.0426 18.2988 15.5753C18.2384 15.6833 18.2093 15.806 18.2147 15.9296C18.2202 16.0532 18.2599 16.1729 18.3295 16.2753L19.2255 17.5966C19.2687 17.6607 19.2883 17.7379 19.2809 17.8149C19.2734 17.8919 19.2395 17.9639 19.1848 18.0186L18.0148 19.1853C17.96 19.2398 17.888 19.2737 17.811 19.281C17.734 19.2883 17.6569 19.2686 17.5928 19.2253L16.2695 18.3279C16.1656 18.258 16.0442 18.2186 15.9191 18.2141C15.794 18.2097 15.6701 18.2403 15.5615 18.3026C15.0655 18.5893 14.5188 18.8159 13.9361 18.9779C13.8166 19.0111 13.7088 19.077 13.6247 19.1682C13.5406 19.2593 13.4836 19.3721 13.4601 19.4939L13.1561 21.0639C13.1413 21.1397 13.1006 21.208 13.041 21.2571C12.9815 21.3062 12.9067 21.3331 12.8295 21.3333H11.1728C11.0956 21.333 11.0209 21.3061 10.9613 21.257C10.9018 21.2079 10.8611 21.1396 10.8461 21.0639L10.5421 19.4939C10.5186 19.3721 10.4616 19.2593 10.3775 19.1682C10.2935 19.077 10.1856 19.0111 10.0661 18.9779C9.49822 18.8223 8.95231 18.5954 8.44146 18.3026C8.33322 18.2404 8.20978 18.2097 8.08504 18.214C7.9603 18.2182 7.83922 18.2572 7.73546 18.3266L6.39946 19.2266C6.33525 19.2697 6.25803 19.2892 6.18104 19.2817C6.10405 19.2741 6.03207 19.24 5.97746 19.1853L4.81546 18.0199C4.76108 17.965 4.72749 17.8928 4.72043 17.8159C4.71338 17.7389 4.7333 17.6618 4.77679 17.5979L5.67346 16.2746C5.81479 16.0659 5.82679 15.7946 5.70346 15.5746C5.41123 15.0562 5.18333 14.5041 5.02479 13.9306C4.99167 13.8102 4.92545 13.7015 4.83364 13.6169C4.74183 13.5323 4.62813 13.4751 4.50546 13.4519L2.93279 13.1526C2.85664 13.1382 2.78789 13.0977 2.73837 13.0381C2.68885 12.9784 2.66166 12.9034 2.66146 12.8259V11.1793V11.1799Z" fill="black"/>
</svg>
