<svg width="24" height="24" viewBox="0 0 24 24" fill="none" xmlns="http://www.w3.org/2000/svg">
<g clip-path="url(#clip0_2402_12101)">
<path d="M24 20.0005C24 18.6864 23.1537 17.5668 21.9777 17.1565C22.3569 16.7387 22.5882 16.1843 22.5882 15.577C22.5882 14.2795 21.5327 13.224 20.2353 13.224C18.9379 13.224 17.8824 14.2795 17.8824 15.577C17.8824 16.1843 18.1137 16.7387 18.4928 17.1565C17.9758 17.337 17.522 17.6547 17.1765 18.0659L17.1766 17.8829C17.1766 15.9659 15.8208 14.3603 14.018 13.9727C14.5159 13.4634 14.8236 12.7674 14.8236 12.0005C14.8236 10.4436 13.557 9.17701 12.0001 9.17701C10.4432 9.17701 9.17657 10.4436 9.17657 12.0005C9.17657 12.7674 9.48428 13.4634 9.98217 13.9727C8.17934 14.3603 6.82362 15.9659 6.82362 17.8829L6.82353 18.0659C6.47779 17.6545 6.02475 17.3371 5.50715 17.1565C5.88631 16.7387 6.11765 16.1843 6.11765 15.577C6.11765 14.2795 5.06212 13.224 3.76471 13.224C2.46729 13.224 1.41176 14.2795 1.41176 15.577C1.41176 16.1843 1.64311 16.7387 2.02226 17.1565C0.846306 17.5668 2.76621e-08 18.6864 2.76621e-08 20.0005V21.1299C2.76621e-08 21.1791 0.00762356 21.2265 0.0216 21.2711C0.0072673 21.3168 -1.6381e-05 21.3644 2.76621e-08 21.4123C2.76621e-08 21.6722 0.210682 21.8828 0.470588 21.8828H23.5294C23.7893 21.8828 24 21.6722 24 21.4123C24 21.3631 23.9924 21.3156 23.9784 21.2711C23.9928 21.2254 24 21.1778 24 21.1299V20.0005ZM20.2353 14.1652C21.0137 14.1652 21.6471 14.7985 21.6471 15.577C21.6471 16.3554 21.0137 16.9887 20.2353 16.9887C19.4568 16.9887 18.8235 16.3554 18.8235 15.577C18.8235 14.7985 19.4568 14.1652 20.2353 14.1652ZM12.0001 10.1181C13.038 10.1181 13.8824 10.9626 13.8824 12.0005C13.8824 13.0384 13.038 13.8828 12.0001 13.8828C10.9622 13.8828 10.1177 13.0384 10.1177 12.0005C10.1177 10.9626 10.9621 10.1181 12.0001 10.1181ZM3.76471 14.1652C4.54315 14.1652 5.17647 14.7985 5.17647 15.577C5.17647 16.3554 4.54315 16.9887 3.76471 16.9887C2.98626 16.9887 2.35294 16.3554 2.35294 15.577C2.35294 14.7985 2.98626 14.1652 3.76471 14.1652ZM5.17647 19.3417C4.91656 19.3417 4.70588 19.5524 4.70588 19.8123V20.9417H2.82353V19.8123C2.82353 19.5524 2.61285 19.3417 2.35294 19.3417C2.09304 19.3417 1.88235 19.5524 1.88235 19.8123V20.9417H0.941176V20.0005C0.941176 18.8587 1.87002 17.9299 3.01176 17.9299H4.51765C5.65939 17.9299 6.58824 18.8587 6.58824 20.0005V20.9417H5.64706V19.8123C5.64706 19.5524 5.43638 19.3417 5.17647 19.3417ZM14.5883 17.6475C14.3285 17.6475 14.1176 17.8583 14.1176 18.1181V20.9417H9.88235V18.1181C9.88235 17.8583 9.67176 17.6475 9.41186 17.6475C9.15195 17.6475 8.94118 17.8583 8.94118 18.1181V20.9417H7.76471L7.7648 17.8828C7.7648 16.1962 9.13699 14.824 10.8236 14.824H13.1766C14.8632 14.824 16.2354 16.1962 16.2354 17.8828L16.2353 20.9417H15.0588V18.1181C15.0588 17.8583 14.8482 17.6475 14.5883 17.6475ZM21.6471 19.3417C21.3872 19.3417 21.1765 19.5524 21.1765 19.8123V20.9417H19.2941V19.8123C19.2941 19.5524 19.0834 19.3417 18.8235 19.3417C18.5637 19.3417 18.3529 19.5524 18.3529 19.8123V20.9417H17.4118V20.0005C17.4118 18.8587 18.3406 17.9299 19.4824 17.9299H20.9882C22.13 17.9299 23.0588 18.8587 23.0588 20.0005V20.9417H22.1176V19.8123C22.1176 19.5524 21.9069 19.3417 21.6471 19.3417ZM1.32951 8.87489L1.04918 10.5092C1.03433 10.5957 1.044 10.6847 1.07708 10.766C1.11016 10.8474 1.16534 10.9178 1.23638 10.9694C1.30741 11.0211 1.39147 11.0518 1.47905 11.0581C1.56663 11.0644 1.65423 11.0461 1.73195 11.0053L3.19962 10.2337L4.66729 11.0053C4.74502 11.0461 4.83262 11.0644 4.92019 11.0581C5.00776 11.0517 5.09181 11.021 5.16284 10.9694C5.23386 10.9178 5.28904 10.8473 5.32213 10.766C5.35522 10.6847 5.36489 10.5957 5.35007 10.5092L5.06979 8.87489L6.25718 7.71748C6.32006 7.65619 6.36453 7.57852 6.38558 7.49327C6.40662 7.40802 6.40339 7.31859 6.37626 7.23507C6.34913 7.15156 6.29917 7.07731 6.23204 7.02071C6.1649 6.96411 6.08327 6.92742 5.99638 6.91479L4.35544 6.67635L3.62165 5.18938C3.58278 5.11065 3.52267 5.04436 3.4481 4.99801C3.37352 4.95166 3.28747 4.92709 3.19967 4.92709C3.11187 4.92709 3.02582 4.95166 2.95125 4.99801C2.87668 5.04436 2.81656 5.11065 2.77769 5.18938L2.04386 6.67635L0.402918 6.91479C0.316031 6.92744 0.234414 6.96413 0.167292 7.02074C0.100171 7.07734 0.0502208 7.15159 0.0230893 7.23509C-0.00404219 7.3186 -0.00727346 7.40803 0.0137608 7.49327C0.034795 7.57852 0.0792559 7.65618 0.142118 7.71748L1.32951 8.87489ZM2.424 7.57216C2.4995 7.56119 2.57121 7.53203 2.63293 7.48719C2.69465 7.44235 2.74455 7.38316 2.77831 7.31475L3.19967 6.46101L3.62104 7.31475C3.6548 7.38316 3.7047 7.44234 3.76642 7.48718C3.82814 7.53202 3.89984 7.56119 3.97534 7.57216L4.91751 7.70905L4.23576 8.37362C4.18112 8.42686 4.14025 8.4926 4.11667 8.56517C4.09309 8.63773 4.08752 8.71494 4.10042 8.79013L4.26132 9.72849L3.41864 9.28543C3.3511 9.24994 3.27596 9.2314 3.19967 9.2314C3.12338 9.2314 3.04824 9.24994 2.98071 9.28543L2.13802 9.72849L2.29896 8.79013C2.31187 8.71494 2.3063 8.63773 2.28272 8.56517C2.25914 8.4926 2.21827 8.42686 2.16362 8.37362L1.48188 7.70905L2.424 7.57216ZM10.1298 6.06595L9.84951 7.70025C9.83466 7.7868 9.84433 7.87576 9.87741 7.9571C9.91049 8.03844 9.96567 8.10889 10.0367 8.16051C10.1077 8.21212 10.1918 8.24283 10.2794 8.24916C10.367 8.2555 10.4546 8.2372 10.5323 8.19635L12 7.42472L13.4677 8.1963C13.5454 8.23719 13.633 8.25551 13.7206 8.24918C13.8082 8.24285 13.8922 8.21213 13.9632 8.16049C14.0343 8.10886 14.0895 8.0384 14.1225 7.95706C14.1556 7.87573 14.1653 7.78676 14.1505 7.70021L13.8702 6.0659L15.0576 4.90849C15.1204 4.8472 15.1649 4.76954 15.186 4.68429C15.207 4.59904 15.2038 4.5096 15.1766 4.42609C15.1495 4.34257 15.0995 4.26832 15.0324 4.21172C14.9653 4.15512 14.8836 4.11843 14.7968 4.10581L13.1558 3.86736L12.422 2.38044C12.3832 2.30171 12.323 2.23542 12.2485 2.18908C12.1739 2.14273 12.0878 2.11816 12 2.11816C11.9122 2.11816 11.8262 2.14273 11.7516 2.18908C11.677 2.23542 11.6169 2.30171 11.578 2.38044L10.8442 3.86736L9.20325 4.10581C9.11636 4.11845 9.03474 4.15515 8.96762 4.21175C8.9005 4.26835 8.85055 4.3426 8.82342 4.4261C8.79629 4.50961 8.79306 4.59904 8.81409 4.68428C8.83512 4.76953 8.87959 4.84719 8.94245 4.90849L10.1298 6.06595ZM11.2243 4.76322C11.2998 4.75225 11.3715 4.72309 11.4333 4.67825C11.495 4.6334 11.5449 4.57422 11.5786 4.50581L12 3.65202L12.4213 4.50576C12.4551 4.57417 12.505 4.63335 12.5667 4.67819C12.6284 4.72303 12.7001 4.7522 12.7756 4.76317L13.7178 4.90011L13.036 5.56468C12.9814 5.61794 12.9406 5.68368 12.917 5.75623C12.8934 5.82879 12.8878 5.906 12.9007 5.98119L13.0616 6.91955L12.219 6.47653C12.1514 6.441 12.0763 6.42243 12 6.42243C11.9237 6.42243 11.8486 6.441 11.781 6.47653L10.9384 6.91955L11.0993 5.98119C11.1122 5.906 11.1066 5.82879 11.083 5.75623C11.0595 5.68366 11.0186 5.61792 10.964 5.56468L10.2822 4.90011L11.2243 4.76322ZM18.9301 8.8603L18.6498 10.4946C18.635 10.5811 18.6447 10.6701 18.6778 10.7514C18.7109 10.8328 18.7661 10.9032 18.8371 10.9548C18.9081 11.0065 18.9922 11.0372 19.0798 11.0435C19.1673 11.0499 19.2549 11.0316 19.3327 10.9907L20.8003 10.2192L22.268 10.9907C22.3457 11.0316 22.4333 11.0499 22.5209 11.0436C22.6085 11.0372 22.6925 11.0065 22.7636 10.9549C22.8346 10.9033 22.8898 10.8328 22.9229 10.7515C22.956 10.6702 22.9657 10.5812 22.9508 10.4947L22.6705 8.86035L23.8579 7.70289C23.9208 7.64159 23.9652 7.56393 23.9863 7.47867C24.0073 7.39342 24.0041 7.30398 23.977 7.22047C23.9498 7.13696 23.8999 7.0627 23.8327 7.0061C23.7656 6.94951 23.6839 6.91283 23.597 6.90021L21.9561 6.66176L21.2223 5.17484C21.1834 5.0961 21.1233 5.0298 21.0487 4.98344C20.9742 4.93708 20.8881 4.91252 20.8003 4.91252C20.7125 4.91252 20.6264 4.93708 20.5518 4.98344C20.4772 5.0298 20.4171 5.0961 20.3783 5.17484L19.6444 6.66176L18.0035 6.90021C17.9166 6.91283 17.835 6.94951 17.7679 7.0061C17.7007 7.0627 17.6508 7.13696 17.6236 7.22047C17.5965 7.30398 17.5932 7.39342 17.6143 7.47867C17.6353 7.56393 17.6798 7.64159 17.7427 7.70289L18.9301 8.8603ZM20.0246 7.55757C20.1001 7.54661 20.1718 7.51744 20.2336 7.4726C20.2953 7.42776 20.3452 7.36858 20.379 7.30016L20.8003 6.44642L21.2216 7.30016C21.2554 7.36858 21.3053 7.42776 21.367 7.4726C21.4287 7.51744 21.5004 7.54661 21.576 7.55757L22.5181 7.69446L21.8363 8.35903C21.7817 8.41229 21.7408 8.47803 21.7173 8.55059C21.6937 8.62315 21.6881 8.70035 21.701 8.77555L21.862 9.71385L21.0193 9.27084C20.9518 9.23535 20.8766 9.21681 20.8003 9.21681C20.724 9.21681 20.6489 9.23535 20.5813 9.27084L19.7386 9.7139L19.8996 8.77555C19.9125 8.70035 19.9069 8.62315 19.8833 8.55059C19.8597 8.47803 19.8189 8.41229 19.7642 8.35903L19.0825 7.69446L20.0246 7.55757Z" fill="black"/>
</g>
<defs>
<clipPath id="clip0_2402_12101">
<rect width="24" height="24" fill="white"/>
</clipPath>
</defs>
</svg>
